<?xml version="1.0" standalone="no"?>
<!DOCTYPE svg PUBLIC "-//W3C//DTD SVG 1.1//EN" "http://www.w3.org/Graphics/SVG/1.1/DTD/svg11.dtd" >
<svg xmlns="http://www.w3.org/2000/svg" xmlns:xlink="http://www.w3.org/1999/xlink" version="1.1">
<metadata></metadata>
<defs>
<font id="lifecraftregular" horiz-adv-x="899" >
<font-face units-per-em="2048" ascent="1536" descent="-512" />
<missing-glyph horiz-adv-x="415" />
<glyph horiz-adv-x="0" />
<glyph unicode="&#xd;" horiz-adv-x="415" />
<glyph unicode=" "  horiz-adv-x="415" />
<glyph unicode="&#x09;" horiz-adv-x="415" />
<glyph unicode="&#xa0;" horiz-adv-x="415" />
<glyph unicode="!" horiz-adv-x="520" d="M6 1104l365 336q0 -211 -11.5 -438.5t-11.5 -469.5q0 -31 1 -49t5 -33.5t12.5 -31t22.5 -37.5h-264q14 20 22.5 35.5t11.5 32t4 36t1 47.5l-45 478q-35 35 -72 63.5t-41 30.5zM129 195v94h264v-94q0 -29 -11 -63t-29.5 -62.5t-43 -49t-49.5 -20.5t-48.5 20.5t-41.5 49 t-29.5 62.5t-11.5 63z" />
<glyph unicode="&#x22;" horiz-adv-x="651" d="M35 1212v95h264v-95q0 -29 -11.5 -84t-29.5 -110t-43 -96t-49 -41q-25 0 -48.5 41t-42 96t-29.5 110.5t-11 83.5zM344 1212v95h264v-95q0 -29 -11 -84t-29.5 -110t-43 -96t-49.5 -41t-48.5 41t-41.5 96t-29.5 110.5t-11.5 83.5z" />
<glyph unicode="#" horiz-adv-x="1435" d="M78 494q0 18 12 30q12 14 31 15q16 0 31 -15h182v103h72l-44 -43v-54h855l180 -36l-180 -37h-855v-51l44 -46h-72v105h-182q-6 -6 -14.5 -11t-16.5 -5q-16 0 -31 14q-12 8 -12 31zM78 793l180 36h854v52l-45 45h74v-105h182q16 16 31 17q16 0 30 -15q12 -10 13 -30 q0 -14 -13 -33q-12 -12 -30 -12q-16 0 -31 14h-182v-103h-74l45 43v54h-854zM367 25l8 45l55 45l-53 -31l6 37l57 49l-53 -35l6 43l68 60l137 780l-102 -90l166 350l38 -387l-63 119l-137 -781l43 -84l-8 -34l-39 51l41 -68l-5 -39l-47 47l43 -61l-6 -43l-69 80zM731 385 l64 -119l137 781l-41 83l4 35l43 -51l-45 68l6 39l49 -47l-45 61l6 43l70 -80l88 53l-10 -45l-58 -45l58 31l-10 -37l-58 -49l55 35l-6 -43l-67 -60l-137 -780l102 90l-168 -350z" />
<glyph unicode="$" horiz-adv-x="929" d="M-2 825l242 498q2 2 2 4t2 4q0 2 2 4q0 12 -9.5 23.5t-23.5 25.5h559q-23 -18 -22 -47q0 -4 8 -24l213 -412h-281q10 12 20.5 22.5t10.5 18.5l-2 8q-27 78 -56.5 123t-64.5 67.5t-75 28t-85 5.5h-8l-100 -242l647 -369l-242 -497q-4 -8 -4 -9q-2 -2 -2 -4 q0 -12 9.5 -23.5t23.5 -25.5h-559q23 18 22 47q0 4 -8 25l-213 411h281q-10 -12 -20.5 -22t-10.5 -19l2 -8q27 -78 56.5 -123t64.5 -67.5t75 -27.5t85 -5h8l100 242zM408 -219v1841h153v-1841h-153z" />
<glyph unicode="%" horiz-adv-x="1157" d="M27 336q0 14 15 34.5t69 61.5q66 53 115.5 89t72.5 52q23 14 32 34t23 48q10 25 32 65t56 66q-14 0 -21 5.5t-18 15.5q-6 4 -14 12q-4 4 -8 6h4q2 0 3 1t5 1q10 0 19 -8q8 8 12 10q2 0 4 -1t6 -1l12 9q8 0 9 -2q0 -4 -9 -13q-10 -10 -10 -18q0 -4 4 -4q10 2 14.5 8 t22.5 6q10 2 13.5 4t7.5 6q2 4 4 6q-6 4 -13 11q-4 4 -9 11t-7 13q10 -4 18.5 -7t12.5 -7q6 -4 10 -8q4 0 10 3t8 15q8 4 12.5 6t10.5 6l6 -2q14 10 55 40t90.5 64t96.5 67.5t71 54.5q27 20 55.5 42.5t53.5 43t43 35t25 20.5q10 12 15 18.5t13 6.5t25 -9q33 -18 33 -51v-8 q-4 -16 -15.5 -21.5t-34.5 -15.5q-10 -6 -21 -14t-24 -15l-28 -14v-2q0 -2 1 -3t1 -3q0 -8 -6 -22.5t-29 -32.5l-393 -283l-17 -12q-14 -10 -14 -23q0 -4 2 -6q12 -10 12 -29q0 -12 -8 -26.5t-26 -26.5l-86 -31q-29 -16 -40.5 -34.5t-11.5 -30.5q2 -8 8.5 -15.5t6.5 -15.5 q-4 0 -9.5 1t-11.5 1q-8 0 -14 -6q-4 -2 -9 -17.5t-8 -11.5q-10 -16 -28.5 -58t-61.5 -99q-45 -59 -70.5 -95t-58.5 -40q-14 0 -33.5 17t-36 39.5t-29.5 44t-15 30.5q-2 4 -2 12zM162 1124q0 16 10 39t26.5 44.5t37 41t43.5 31.5l71 53l101 -157l-78 -52q-27 -20 -64 -32.5 t-71 -12.5q-49 0 -70 25q-6 8 -6 20zM379 524q0 2 2 2q6 0 10 2q4 0 4 4q0 6 -4 23q-4 -6 -6 -12t-4 -11q-2 -6 -2 -8zM428 608l6 6q4 4 17 13q6 4 18 8l8 4q-2 0 -4 2q-4 4 -4 8q-4 4 -4 10v7l-4 -4q-2 -2 -3 -6.5t-5 -8.5q-10 -10 -17 -22zM471 662q0 -7 2 -9 q8 -12 25 -12q16 0 34 12q27 18 27 43l-2 13q-6 14 -20 14q-8 0 -21 -12q-6 -6 -10 -13q0 -4 2 -8q2 -6 10 -12t6 -6q-12 0 -24 16q0 6 -2 6q-4 0 -6 -4q-10 -10 -15.5 -16t-5.5 -12zM637 430l78 51q27 23 64.5 35t72.5 12q45 0 68 -24q6 -10 6 -23q0 -18 -10.5 -39.5 t-27 -44t-38 -41t-41.5 -30.5l-72 -54z" />
<glyph unicode="&#x26;" horiz-adv-x="1300" d="M6 176v434l285 148l-154 121q-8 16 -14 39q-4 18 -8 44.5t-4 59.5v72q0 41 4 83t21.5 80.5t50 71.5t89.5 57h426q57 -25 90 -57.5t49.5 -71t21.5 -80.5t5 -83v-72q0 -33 1 -50.5t3 -25.5t7 -10l-191 -178l105 -107l106 97q12 -4 27 -7q12 -2 29.5 -3t39.5 -1q31 0 65 36 t65.5 89t59 114.5t46.5 115.5v-392q-16 -43 -35 -75q-16 -29 -34.5 -52.5t-39.5 -23.5q-27 0 -50 -8.5t-42 -18.5q-23 -12 -39 -26l-80 -82l80 -86q16 -18 39 -31q18 -10 42 -19.5t50 -9.5q20 0 39 -22.5t35 -50.5q18 -33 35 -74v-383q-18 51 -46 112.5t-59.5 114.5 t-65.5 89t-65 36q-23 0 -40 -2t-29 -4q-14 -2 -27 -4l-164 100l-319 -200zM223 340l193 -178l178 178v125l-150 133l-221 -133v-125zM393 1010l96 -119l103 119v106l-98 90l-101 -90v-106z" />
<glyph unicode="'" horiz-adv-x="487" d="M102 1212v95h265v-95q0 -29 -11.5 -84t-30 -110t-43 -96t-49.5 -41t-48 41t-41.5 96t-30 110.5t-11.5 83.5z" />
<glyph unicode="(" horiz-adv-x="651" d="M72 547v133l465 776h284l-334 -170l-163 -676l172 -673l327 -164h-286z" />
<glyph unicode=")" horiz-adv-x="638" d="M-156 -227l328 164l172 673l-164 676l-334 170h285l465 -776v-133l-465 -774h-287z" />
<glyph unicode="*" horiz-adv-x="845" d="M14 1026l310 47l-181 232l238 -177l43 306l45 -308l231 185l-178 -244l309 -41l-309 -41l197 -235l-250 178l-45 -312l-47 310l-246 -174l188 237z" />
<glyph unicode="+" horiz-adv-x="894" d="M96 455l160 159l-160 160l305 -88l-88 305l160 -160l160 160l-88 -305l305 88l-160 -160l160 -159l-305 88l88 -305l-160 159l-160 -159l88 305z" />
<glyph unicode="," horiz-adv-x="397" d="M47 195v94h260l19 -234q0 -33 -8.5 -69.5t-24.5 -59.5q-18 -25 -33.5 -38t-29 -18t-24.5 -7t-20 -4q43 35 57.5 84t14.5 77q0 25 -6 25q-16 -20 -34.5 -32.5t-39.5 -12.5q-25 0 -48.5 20.5t-41.5 49t-29.5 62.5t-11.5 63z" />
<glyph unicode="-" d="M0 553l51 61l-51 64h33l43 -43l-29 43h29l47 -43l-35 41h31l59 -45h502l-84 65l297 -82l-297 -82l86 66h-504l-57 -45h-33l35 41l-47 -41h-29l31 41l-43 -41h-35z" />
<glyph unicode="." horiz-adv-x="319" d="M25 195v94h264v-94q0 -29 -11.5 -63t-30 -62.5t-43 -49t-48.5 -20.5q-25 0 -48.5 20.5t-42 49t-29.5 62.5t-11 63z" />
<glyph unicode="/" horiz-adv-x="1042" d="M117 68q0 16 11 42.5t44 73.5q53 82 94 139.5t58 82.5q18 25 21 50t7 56q2 35 10.5 85t34.5 89q-6 -2 -16 -2q-14 0 -31 10q-12 0 -20 6q-6 2 -11 7q2 2 7 4l8 4t8 2t12 -4q2 6 8 12q4 4 7 4l6 -2q4 2 5 6t5 8l6 11l2 -11q0 -8 -4 -16q-4 -16 -4 -23q0 -8 8 -8 q12 10 11 19.5t20 19.5q18 8 22 19q2 4 3 8q-10 0 -19 4q-20 8 -24 18h12q10 0 17 -2t11 -4q6 -2 11 -4l6 6q8 8 8 13v2q0 4 2 6l23 18l-4 4q-4 4 -5 4l11 -2q8 14 39.5 59.5t71.5 100.5t79 108.5t57 84.5q20 33 43 67.5t43.5 65t35 54t18.5 36.5q8 16 13 25.5t24 9.5h10 q53 -12 57 -56q2 -4 2 -12q0 -12 -10 -20.5t-27 -24.5q-10 -10 -20 -22.5t-21 -22.5q-10 -12 -22 -27l2 -4q0 -4 1 -8t1 -8q0 -10 -4 -24.5t-17 -35.5l-307 -450q-8 -8 -14 -17l-8 -16t-4 -14t2 -8q25 -6 24 -46q0 -25 -14 -47q-10 -12 -19.5 -19t-19.5 -12t-20.5 -12.5 t-22.5 -21.5q-35 -47 -35 -76l2 -12q6 -18 18.5 -20.5t10.5 -6.5q-4 -6 -16.5 -5t-18.5 -13q-4 -8 -4 -17q0 -6 1 -10t1 -8q0 -6 -2 -6q2 0 -6 4q-4 -23 -7 -73t-30 -134q-27 -78 -41 -125t-45 -63q-4 -2 -14 -2q-18 0 -44 12t-49.5 28.5t-42 33t-22.5 24.5q-10 14 -10 31z M426 387q0 -2 2 -4l12 12q0 4 -3 10.5t-7 10.5q-4 -12 -4 -19v-10zM444 492l23 26q4 6 7 9t7 8l6 6q-2 0 -4 2q-2 0 -6 4q-2 2 -3 5t-3 7t-2 6q0 -2 -2 -6l-4 -8t-4 -10q-6 -14 -10 -31q-2 -8 -5 -18zM475 569q0 -8 6 -14q8 -6 17 -6q25 0 43 29q23 18 22 38q0 14 -10 25 q-12 14 -18 14q-10 0 -33 -37q0 -6 2 -10q4 -4 9 -5t9 -3q6 -2 13 -2q0 -4 -11 -4q-6 0 -14 2t-12 8q-2 2 -6 2t-5 -6q-12 -23 -12 -31z" />
<glyph unicode="0" horiz-adv-x="995" d="M51 252v919l416 267l367 -267v-919l-367 -307zM295 330l172 -113l162 113v745l-162 92l-172 -92v-745z" />
<glyph unicode="1" horiz-adv-x="610" d="M-47 1067l33 31q34 30 84.5 74.5t110 95.5t109.5 95t83 73l33 28v-1282q0 -41 21.5 -73.5t47.5 -57.5q31 -29 72 -51h-494q27 23 49 51q18 25 35 57.5t17 73.5q0 14 -1 57.5t-2 102.5t-2.5 130t-1.5 142q-4 168 -6 371q-53 18 -94 37q-35 14 -64.5 27.5t-29.5 17.5z" />
<glyph unicode="2" horiz-adv-x="894" d="M-6 1149l434 291l424 -469l-576 -709q166 0 263.5 4t155 16.5t87 36t58.5 60.5v-379h-840v262l455 529q33 45 47 86t14 77q0 72 -48 117t-122 45q-78 0 -171 -61.5t-171 -206.5q0 16 -10 301z" />
<glyph unicode="3" horiz-adv-x="999" d="M20 0l14 28q13 27 28.5 68t28.5 89t13 91q33 -31 85.5 -49t112.5 -27.5t125 -12.5t122 -3q59 0 84.5 31t25.5 70v84q-160 72 -236.5 126t-76.5 119q0 61 66.5 142.5t195.5 191.5l-20 203q-35 37 -86 37q-41 0 -87 -19.5t-89 -50.5t-79 -67.5t-59 -71.5l-120 235l270 220 h477l53 -529l-241 -284l301 -95q2 -47 5 -95t3 -89q0 -45 -2 -90t-13.5 -89t-35 -85t-68.5 -78h-797z" />
<glyph unicode="4" horiz-adv-x="1169" d="M-20 1194l405 362v-696l168 -145h137v715h373q-33 -23 -55 -46q-23 -20 -39.5 -42.5t-16.5 -45.5v-577h162v-316h-162v-299q0 -37 13.5 -59t40.5 -47h-355q39 47 39 104v304h-231l-357 358v346z" />
<glyph unicode="5" horiz-adv-x="946" d="M-35 487h281q-10 -12 -20.5 -22t-10.5 -19l2 -8q27 -78 56.5 -123t64.5 -67.5t75 -27.5t85 -5h8l100 420l-422 67q-43 6 -69.5 32t-42 59.5t-20.5 72.5t-5 76v485h797v-342h-228v105h-299v-205l621 -133l-242 -786q-4 -8 -4 -9q-2 -2 -2 -4q0 -12 9.5 -23.5t23.5 -25.5 h-559q23 18 22 47q0 4 -8 25z" />
<glyph unicode="6" horiz-adv-x="942" d="M117 182v1022q0 102 66.5 166t189.5 64q43 0 109.5 -4.5t134 -29t125 -76.5t81.5 -150l-118 -113q-45 80 -109 102.5t-123 22.5q-27 -12 -47 -31q-18 -16 -32.5 -40.5t-14.5 -59.5t-1 -68t-3 -59q-2 -31 -2 -58h305l237 -479l-219 -391h-446zM373 379l125 -129l141 156 l-74 180h-192v-207z" />
<glyph unicode="7" horiz-adv-x="1079" d="M14 1016v354q20 33 82 48.5t156 15.5q135 0 322.5 -28t400.5 -73l102 -325l-24 6q-27 6 -46.5 11t-35.5 5q-29 0 -50.5 -19.5t-48.5 -72.5q-45 -94 -99 -198.5t-102 -208t-80 -201t-32 -176.5q0 -47 13.5 -86t43.5 -68h-495q33 33 56.5 61.5t48 67.5t52 94.5t66.5 143.5 t93.5 215t131.5 309q20 47 41 95t43 101q-45 20 -122.5 34t-165.5 14q-55 0 -109.5 -6.5t-102 -20.5t-84 -36.5t-55.5 -55.5z" />
<glyph unicode="8" horiz-adv-x="872" d="M6 176v434l205 174l-191 113q2 20 5 43q2 20 4 48t2 61v71q0 41 4 83t21.5 81t50 72t90.5 57h426q57 -25 89.5 -57.5t49 -71.5t21.5 -81t5 -83v-71q0 -33 1.5 -60.5t3.5 -48.5q2 -23 6 -43l-191 -113l201 -174v-413l-393 -217zM223 340l193 -178l178 178v125l-184 182 l-187 -182v-125zM313 1036l97 -118l102 118v107l-98 90l-101 -90v-107z" />
<glyph unicode="9" horiz-adv-x="948" d="M-2 1032l219 391h662l-82 -182v-1022q0 -102 -66.5 -165.5t-189.5 -63.5q-43 0 -109.5 4t-134.5 28.5t-125 77t-82 150.5l119 112q45 -80 108.5 -102t122.5 -22q25 12 47 30q16 16 32 41t16 60v67.5t2 59.5q2 31 4 57h-305zM281 991l67 -153h197v258l-172 90z" />
<glyph unicode=":" horiz-adv-x="471" d="M98 4v94q0 27 11.5 62t30 63.5t42 49t47.5 20.5q25 0 49.5 -20.5t43 -49t29.5 -63.5t11 -62v-94h-264zM98 606v94h264v-94q0 -29 -11 -62.5t-29.5 -62t-43 -49t-49.5 -20.5t-48 20.5t-41.5 49t-30 62.5t-11.5 62z" />
<glyph unicode=";" horiz-adv-x="444" d="M98 606v94h264v-94q0 -29 -11 -62.5t-29.5 -62t-43 -49t-49.5 -20.5t-48 20.5t-41.5 49t-30 62.5t-11.5 62zM102 195v94h260l19 -254q0 -63 -33 -109q-18 -25 -33.5 -38t-29 -18t-24.5 -7t-19 -4q43 35 57 84t14 77q0 25 -6 25q-16 -20 -34.5 -32.5t-39.5 -12.5 q-25 0 -48 20.5t-41.5 49t-30 62.5t-11.5 63z" />
<glyph unicode="&#x3c;" horiz-adv-x="1259" d="M12 614l234 66q12 25 33 47q16 18 42.5 33.5t63.5 15.5q35 0 61.5 -15.5t42.5 -33.5q20 -23 33 -47l731 498l-479 -568l479 -559l-731 496q-12 -27 -33 -49q-16 -18 -42.5 -32.5t-61.5 -14.5t-61.5 14t-42.5 33q-20 23 -35 49z" />
<glyph unicode="=" horiz-adv-x="972" d="M43 553l51 61l-51 64h33l43 -43l-29 43h29l47 -43l-35 41h31l59 -45h502l-84 65l297 -82l-297 -82l86 66h-504l-57 -45h-33l35 41l-47 -41h-29l31 41l-43 -41h-35zM43 854l297 82l-84 -66h502l59 45h31l-35 -41l47 44h29l-29 -44l43 44h33l-51 -64l51 -61h-35l-43 41 l31 -41h-29l-47 41l35 -41h-33l-57 45h-504l86 -66z" />
<glyph unicode="&#x3e;" horiz-adv-x="1253" d="M12 51l480 559l-480 568l731 -498q12 25 33 47q16 18 42 33.5t63 15.5q35 0 62.5 -15.5t43.5 -33.5q20 -23 33 -47l233 -66l-233 -67q-14 -27 -35 -49q-16 -18 -43 -32.5t-61 -14.5q-35 0 -61.5 14t-43.5 33q-20 23 -33 49z" />
<glyph unicode="?" horiz-adv-x="968" d="M-18 1028q0 16 12 23l6 2q14 0 30.5 -16.5t28.5 -32.5q10 -14 32 -27.5t38 -13.5q8 0 14 6q4 8 4 12q0 16 -12 36.5t-22 39.5q-6 12 -18.5 17t-25 10.5t-22.5 11.5t-12 20q0 14 18.5 40t40.5 52q25 31 60 64l12 61q4 23 10 43.5t14 24.5q2 2 9 2q10 0 22 -5t25 -12 l28 -16q37 33 70 60q29 23 55.5 42t38.5 19t40 -18.5t57 -40.5q33 -27 71 -60q14 6 27 14q10 6 23.5 11.5t25.5 5.5q10 0 16 -6q10 -8 14.5 -27.5t8.5 -40.5q4 -25 4 -53q33 -33 59 -64q23 -27 42.5 -53t19.5 -41q-4 -25 -25.5 -35t-38.5 -22q-12 -10 -29.5 -30.5 t-17.5 -43.5q0 -6 4 -14q2 -4 9 -4q10 0 28.5 12t38 26.5t39.5 27t33 12.5q6 0 10 -5q4 -4 4 -10q0 -18 -20.5 -57t-46 -78t-51 -69.5t-38.5 -32.5q-10 0 -27.5 17t-41.5 17q-8 0 -14 -2q-27 -10 -44.5 -28.5t-27.5 -41t-14.5 -46t-4.5 -39.5q0 -6 1 -10.5t1 -8.5 q2 -12 17 -12q8 0 16 2t19 2q12 0 18 -12q0 -2 1 -3t1 -5q0 -12 -17.5 -49t-39.5 -80q-23 -47 -46.5 -85t-39.5 -38q-16 2 -22.5 35.5t-6.5 83.5q0 55 -10 81.5t-22.5 28.5t-22.5 -23.5t-10 -74.5q0 -18 -1 -40t-3.5 -41.5t-8.5 -33.5t-14 -16q-10 0 -24.5 20.5t-28 45 t-18.5 34.5l-17 31q-2 -2 -12.5 18.5t-20.5 38.5q-10 16 -18.5 35.5t-8.5 36.5q0 6 3 10q2 6 12 6t23.5 -6t23.5 -6q14 2 25.5 18.5t31.5 36.5l223 226q18 31 32 62.5t14 66.5v10q-2 49 -25 85t-51.5 58.5t-58 33.5t-44.5 11q-16 0 -37.5 -5t-45 -19.5t-46 -37t-37.5 -57.5 q-14 -31 -14 -65q0 -51 20.5 -92t30.5 -64l2 -6v-8q0 -23 -18 -40t-41 -24q-4 -2 -14 -2q-14 0 -26.5 4.5t-22.5 4.5l-7 -3q-14 -4 -26.5 -22t-20.5 -18q-12 2 -37.5 29.5t-52 65.5t-47 78t-20.5 64zM307 190v95h264v-95q0 -29 -11 -62.5t-29.5 -62t-43 -49t-49.5 -20.5 t-48 20.5t-41.5 49t-30 62.5t-11.5 62zM322 1085q0 10 14 34t33.5 47.5t40 42t30.5 18.5q8 0 28.5 -18.5t40 -42t35 -47t15.5 -34.5q0 -14 -14.5 -37.5t-35 -47t-39.5 -40t-30 -16.5q-12 0 -32.5 18.5t-39 42t-32.5 47t-14 33.5z" />
<glyph unicode="@" horiz-adv-x="1300" d="M55 721q0 111 24.5 201t63.5 159.5t87.5 118.5t95.5 76l34 18q68 39 151 76t177 37q88 0 180.5 -47t184.5 -168q102 -135 143 -288.5t41 -293.5q0 -72 -9 -136t-25.5 -115.5t-38 -87t-46.5 -50.5q-51 -29 -94 -28q-27 0 -46.5 8t-33.5 18q-16 10 -29 27h-231q14 16 25 33 q10 14 18 31.5t8 35.5q0 16 -5 49t-9 68q-8 39 -14 84q-55 -20 -99 -47q-37 -25 -67.5 -61t-30.5 -85l2 -18q41 -53 62.5 -71.5t19.5 -18.5h-299q16 14 33.5 40.5t21.5 59.5q0 8 6 39t13.5 75t17.5 97t21 109q23 127 53 282l-49 66l327 194q-4 -12 -6 -26q-6 -25 -6 -60 q0 -33 8 -57q6 -23 22.5 -78t33.5 -115q20 -68 40 -149l121 35l21 -103l-109 -47q12 -63 29 -121q12 -49 29.5 -101t38.5 -83q0 -20 14 -20q57 6 89 52t46 116.5t16 158.5t2 181v26q0 76 -44 163t-115.5 159.5t-162.5 121t-185 48.5q-96 0 -179.5 -49.5t-146 -134.5 t-98 -199.5t-35.5 -245.5q0 -119 25.5 -227.5t83 -191.5t151.5 -133t231 -50q29 0 60.5 3t66.5 7q2 2 -18.5 -9t-58 -25.5t-88 -27t-105.5 -12.5q-49 0 -101.5 13.5t-102.5 49.5t-94 95t-79 152q-41 113 -59.5 211t-18.5 186zM557 596l121 80l-68 196z" />
<glyph unicode="A" horiz-adv-x="1026" d="M10 0q18 16 46 58t34 87q2 14 11.5 68.5t24.5 135.5t34.5 178.5t38.5 197.5q45 233 102 524l-82 193l453 -8q-4 -18 -8 -41q-4 -18 -6.5 -42t-2.5 -48q0 -23 2 -42.5t9 -39.5l12 -48t19.5 -71t23.5 -84t24 -88q29 -102 62 -223l178 55l35 -156l-166 -65q27 -119 55 -226 q25 -92 56.5 -181t64.5 -134h-440q20 23 37 47q14 23 26.5 47.5t12.5 50.5q0 25 -7.5 75t-15.5 102q-10 59 -22 127q-82 -31 -146 -72q-53 -35 -98 -89.5t-45 -127.5q0 -18 2 -29q57 -76 90 -103.5t31 -27.5h-445zM399 524l181 117l-101 297z" />
<glyph unicode="B" horiz-adv-x="1007" d="M-6 1438h643l367 -533l-314 -284l301 -95q2 -47 5 -95t3 -89q0 -45 -2 -90t-13 -89t-34.5 -85t-68.5 -78h-797l12 20q13 21 28 52.5t28.5 72.5t13.5 84v1057zM430 184h182q51 0 81 31t30 70v84l-293 120v-305zM430 766l242 182l-146 203h-96v-385z" />
<glyph unicode="C" horiz-adv-x="696" d="M55 104v1092l322 346l344 -360l-195 -131l-102 145l-68 -90v-936l62 -80l190 207l86 -287l-301 -270z" />
<glyph unicode="D" horiz-adv-x="1058" d="M-6 1430h604l406 -525q0 -223 1 -375v-27q1 -135 -9 -229q-10 -102 -36 -165.5t-79 -108.5h-797l12 20q13 21 28 52.5t28.5 72.5t13.5 84v1059zM430 211h182q51 0 81 30.5t30 69.5v512l-293 275v-887z" />
<glyph unicode="E" horiz-adv-x="862" d="M-6 1434h819l2 -447l-84 236h-291v-336h262v-262l-53 53h-209v-451q0 -6 6 -6q82 0 144.5 4t113 15.5t89 33t73.5 56.5v-330h-866q43 31 80 68q29 29 54.5 65.5t25.5 71.5q0 16 -1 69.5t-2 128t-2 163.5t-1 182q-4 215 -7 475q-41 59 -78.5 107t-74.5 104z" />
<glyph unicode="F" horiz-adv-x="829" d="M-6 1434h819l2 -447l-84 236h-291v-336h262v-262l-53 53h-209v-471q0 -53 39 -107.5t92 -99.5h-571q43 31 80 68q29 29 54.5 65.5t25.5 71.5q0 16 -1 69.5t-2 128t-2 163.5t-1 182q-4 215 -7 475q-41 59 -78.5 107t-74.5 104z" />
<glyph unicode="G" horiz-adv-x="940" d="M90 166v1030l322 346l344 -360l-195 -131l-102 145l-68 -90v-875l62 -79l213 233l-56 84h-145v152l346 -7l180 -737l-219 301l-344 -377z" />
<glyph unicode="H" horiz-adv-x="1247" d="M29 -2q31 25 55 53q23 25 40 58.5t17 72.5v1123q0 31 -11 54t-26 40q-16 20 -34 35h403q-14 -8 -22 -21q-8 -10 -14.5 -27.5t-6.5 -42.5v-540q68 2 115 6t87 15.5t79 36t90 71.5v420q0 23 -6.5 39t-12.5 26q-8 10 -18 17h391q-27 -16 -47 -37q-16 -16 -30.5 -40 t-14.5 -48v-195l135 129l31 -188l-166 -226l-2 -636q0 -39 21.5 -73t47.5 -61q31 -31 72 -59h-452q14 6 24 18q10 10 17.5 29t7.5 51v502q-55 -49 -94 -74.5t-78 -38t-82 -15.5t-105 -7q0 -72 2 -137q0 -55 1 -114.5t1 -96.5q0 -35 6.5 -57.5t16.5 -36.5q10 -16 25 -25h-463 z" />
<glyph unicode="I" horiz-adv-x="591" d="M37 0q25 43 45 86q16 37 30.5 80t14.5 78v880q0 31 -3 74t-13.5 88t-27.5 84t-46 64h493q-29 -27 -49 -67t-32.5 -84t-18.5 -87t-6 -74q0 -57 2 -114.5t3 -149.5t3 -237.5t2 -376.5q0 -35 21.5 -78t48.5 -80q31 -43 71 -86h-538z" />
<glyph unicode="J" horiz-adv-x="985" d="M18 31v354q25 -57 92.5 -112.5t145.5 -98.5t145.5 -69.5t92.5 -26.5v1061h-21q-18 0 -50 -3t-65.5 -15.5t-64.5 -37t-51 -67.5v327q0 27 -9.5 45.5t-19.5 28.5q-12 12 -27 21h672q-29 -23 -41 -42.5t-12 -62.5v-1143q0 -49 9 -78.5t29.5 -47t52.5 -25.5t75 -12l-223 -271 q-115 0 -225.5 21.5t-207 58.5t-173 87t-124.5 108z" />
<glyph unicode="K" horiz-adv-x="976" d="M-6 1434h432v-668l246 182v350l-88 136h307v-631l-205 -174l191 -113q-4 -20 -7 -43q-2 -20 -3 -48t-1 -60q0 -47 5.5 -98.5t18.5 -100.5t36.5 -93t62.5 -73h-289q-33 25 -55 55q-23 25 -39 57.5t-16 67.5t-1 69t-3 62q-2 33 -2 66l-154 119q0 -68 2 -131q2 -53 3 -108.5 t1 -90.5t14.5 -64.5t32.5 -52.5q20 -27 47 -49h-462q31 35 53 72q20 33 36.5 73.5t16.5 83.5v1028z" />
<glyph unicode="L" horiz-adv-x="657" d="M-8 8q16 -4 22 -6l9 -2q29 -8 54 -13t46 -5q35 0 54.5 20.5t19.5 75.5v1077q0 51 -17.5 96t-40 82t-45 63.5t-33.5 37.5h596q-51 -53 -79.5 -88t-42 -66t-16.5 -62.5t-3 -80.5v-1209q45 -20 123 -33.5t166 -13.5q55 0 109.5 6.5t101.5 20.5t84 36.5t55 55.5v-354 q-20 -33 -92 -48.5t-182 -15.5q-158 0 -366 28t-421 73z" />
<glyph unicode="M" horiz-adv-x="1316" d="M29 -2q31 25 55 53q23 25 40 58.5t17 72.5v1123q0 31 -11 54t-26 40q-16 20 -34 35h548q-14 -8 -22 -21q-8 -10 -14.5 -27.5t-6.5 -42.5q0 -10 3.5 -33.5t8.5 -56t12 -71.5t15 -78q18 -92 41 -203q20 104 39 193q16 76 28.5 147.5t14.5 99.5v11q0 23 -6 39t-12 26 q-8 10 -19 17h566q-27 -16 -47 -37q-16 -16 -30.5 -40t-14.5 -48l-3 -1116q0 -39 21.5 -73t48.5 -61q31 -31 72 -59h-461q14 6 25 18q10 10 17 29t7 51q0 12 -1 53.5t-2 99.5t-2 130t-3 143q-4 170 -6 375l-217 -872l-230 850q0 -184 2 -342v-134.5t1 -123t1 -99.5v-61 q0 -35 6.5 -57.5t16.5 -36.5q10 -16 25 -25h-463z" />
<glyph unicode="N" horiz-adv-x="1095" d="M-109 1434h445l432 -396v285q0 16 -17.5 36.5t-39.5 39.5q-25 23 -58 45h369v-281q0 -70 -1 -178t-3 -229t-3 -240t-1 -209v-104t2 -58q2 -18 10 -40.5t20.5 -43t24.5 -38t25 -23.5h-400l10 8q9 8 20 25.5t21.5 42t10.5 59.5v619l-400 295q6 -233 14 -422q2 -82 3.5 -162 t3.5 -145.5t3 -112.5t1 -62q0 -37 11.5 -64.5t25.5 -45.5q16 -23 39 -35h-396l50 145q0 51 -1 126t-2 161t-2.5 178t-1.5 181q-2 207 -4 434z" />
<glyph unicode="O" horiz-adv-x="876" d="M57 176v1063l420 305l367 -305v-1063l-367 -350zM311 268l166 -127l158 127v858l-158 107l-166 -107v-858z" />
<glyph unicode="P" horiz-adv-x="1046" d="M-6 1442h668l344 -539q-66 -53 -140.5 -107.5t-151.5 -108.5t-151 -106.5t-133 -97.5q0 -66 2 -125q2 -51 3 -104t1 -88t14.5 -64.5t32.5 -52.5q20 -27 47 -49h-462q31 35 53 72q20 33 36.5 73.5t16.5 83.5v1022zM430 768l242 180l-146 203h-96v-383z" />
<glyph unicode="Q" horiz-adv-x="802" d="M23 201v1038l385 305l337 -305v-1104l-67 -69q45 -45 74.5 -76t65.5 -51.5t89.5 -30.5t145.5 -15.5t234.5 -6.5t357.5 -1v-135q-215 -2 -365 -2t-254 4t-173 16.5t-119 35t-91 57.5t-92 86l-143 -107zM242 244l166 -127l157 127v936l-157 106l-166 -106v-936zM313 207 v102q0 27 2 53q61 0 107.5 -25.5t79.5 -53.5q37 -35 63 -78q4 -25 4 -44q0 -28 -9 -41q-15 -22 -37.5 -24t-43 7.5t-18.5 7.5t-8.5 13t-30 33.5t-48 34t-61.5 15.5z" />
<glyph unicode="R" horiz-adv-x="1011" d="M-6 1442h690l322 -539l-320 -274l191 -113q-4 -20 -7 -43q-2 -20 -3 -48t-1 -60q0 -47 5.5 -98.5t18.5 -100.5t36.5 -93t62.5 -73h-289q-33 25 -55 55q-23 25 -39 57.5t-16 67.5t-1 69t-3 62q-2 33 -2 66l-154 119q0 -68 2 -131q2 -53 3 -108.5t1 -90.5t14.5 -64.5 t32.5 -52.5q20 -27 47 -49h-462q31 35 53 72q20 33 36.5 73.5t16.5 83.5v1028zM430 766l242 182l-146 203h-96v-385z" />
<glyph unicode="S" horiz-adv-x="972" d="M-2 825l242 498q2 2 2 4t2 4q0 2 2 4q0 12 -9.5 23.5t-23.5 25.5h559q-23 -18 -22 -47q0 -4 8 -24l213 -412h-281q10 12 20.5 22.5t10.5 18.5l-2 8q-27 78 -56.5 123t-64.5 67.5t-75 28t-85 5.5h-8l-100 -242l647 -369l-242 -497q-4 -8 -4 -9q-2 -2 -2 -4 q0 -12 9.5 -23.5t23.5 -25.5h-559q23 18 22 47q0 4 -8 25l-213 411h281q-10 -12 -20.5 -22t-10.5 -19l2 -8q27 -78 56.5 -123t64.5 -67.5t75 -27.5t85 -5h8l100 242z" />
<glyph unicode="T" horiz-adv-x="854" d="M0 1016v246q0 82 2 176q12 -2 107 -2h739v-420q-16 29 -49 52.5t-70 38.5t-74 23.5t-61 8.5h-31v-852q0 -68 24.5 -121t55.5 -90q37 -43 82 -76h-604q37 35 65 74q25 35 45.5 77t20.5 85v903h-21q-18 0 -49.5 -3t-65.5 -15.5t-65 -37t-51 -67.5z" />
<glyph unicode="U" horiz-adv-x="1073" d="M-4 1430h440q-16 -10 -26 -27q-10 -14 -18.5 -33.5t-8.5 -46.5v-938l147 -154l142 154v950q0 35 -8.5 55.5t-38.5 39.5h417q-33 -20 -55 -44q-23 -20 -39 -43.5t-16 -48.5v-993l-410 -461l-450 445v997q-8 35 -21.5 62.5t-27 47t-21.5 29t-6 9.5z" />
<glyph unicode="V" horiz-adv-x="1052" d="M-4 1436q2 -2 36 -2h83h213q57 0 114 2q-14 -10 -24 -23q-10 -10 -17.5 -26.5t-7.5 -38.5v-13q2 -12 9.5 -54t18.5 -100.5t25.5 -129t30.5 -142.5q35 -170 80 -374q0 6 9 59t20.5 133t26 173t27.5 178t22.5 150.5t13.5 88.5q2 10 2 26q0 27 -7 44.5t-18 27.5 q-10 12 -24 21h420q-16 -14 -35 -35q-16 -16 -34.5 -41t-41.5 -57q-10 -16 -25.5 -71.5t-33 -136.5t-37 -179.5t-38 -201t-34.5 -200.5t-28.5 -179t-19.5 -136.5t-7 -69.5q0 -31 10 -55.5t25 -40.5q16 -20 36 -33h-518q25 16 45 37q16 16 31.5 38.5t15.5 49.5q0 16 -18 103 t-48 208t-63.5 261.5t-65.5 264t-54.5 215t-28.5 115.5q-10 37 -25.5 64.5t-30 46t-23.5 27t-7 6.5z" />
<glyph unicode="W" horiz-adv-x="1368" d="M-4 1434h43h83h102.5h100.5t78.5 1t38.5 1q-14 -10 -24 -23q-10 -10 -17.5 -26.5t-7.5 -38.5v-13q2 -12 9.5 -54t18.5 -100.5t25.5 -129t30.5 -142.5q35 -170 80 -374l217 872l230 -850q29 188 51 346q10 68 20 133.5t18.5 123t14.5 98t10 59.5q2 10 2 26q0 27 -7 44.5 t-17 27.5q-10 12 -25 19h488q-16 -12 -35 -33q-16 -16 -35 -41t-41 -57q-10 -16 -25.5 -71.5t-33 -136.5t-37 -179.5t-38 -201t-34.5 -200.5t-28.5 -179t-19.5 -136.5t-7 -69.5q0 -31 10 -55.5t25 -40.5q16 -20 36 -33h-471q12 8 21 20q8 10 15 28t7 42q0 8 -3 31.5t-9 57.5 t-13 73t-16 78q-18 92 -39 202q-20 -104 -38 -192q-16 -76 -28.5 -148.5t-14.5 -99.5v-10q0 -25 5 -40t13 -26q8 -10 18 -16h-475q25 16 45 37q16 16 31.5 38.5t15.5 49.5q0 16 -18 103t-48 208t-63.5 261.5t-65.5 264t-54.5 215t-28.5 115.5q-10 35 -24.5 62.5t-28.5 44.5 q-17 21 -33 35z" />
<glyph unicode="X" horiz-adv-x="1009" d="M2 1434h326v-486l184 -182l186 182v350l-90 136h307v-631l-204 -174l190 -113q-4 -20 -6 -43q-2 -20 -3 -48t-1 -60q0 -47 5 -98.5t18.5 -100.5t37 -93t62.5 -73h-289q-33 25 -55 55q-23 25 -39.5 57.5t-16.5 67.5t-1 69t-3 62q-2 33 -2 66l-96 119l-96 -119l-4 -66 q-2 -29 -2 -62.5v-68.5t-17.5 -67.5t-38.5 -57.5q-25 -31 -55 -55h-289q39 29 62.5 73t37 93t18.5 100t5 99q0 33 -2 60.5t-4 47.5q-2 23 -4 43l190 113l-200 174v471z" />
<glyph unicode="Y" horiz-adv-x="1042" d="M-4 1430h440q-16 -10 -28 -23q-10 -10 -18.5 -25.5t-8.5 -35.5q0 -14 2 -23l147 -287l142 299q2 8 3 13.5t1 11.5q0 23 -13.5 38t-37.5 32h417q-35 -31 -88 -115q-45 -72 -114.5 -211t-165.5 -375v-600q0 -31 10 -55.5t25 -40.5q16 -20 36 -33h-458q25 16 45 37 q16 16 31.5 38.5t15.5 49.5v604q-82 162 -142.5 276.5t-103.5 192.5t-70.5 124t-43 70.5t-20.5 31t-3 6.5z" />
<glyph unicode="Z" horiz-adv-x="888" d="M-4 262l565 877h-330q-18 0 -49.5 -3t-65.5 -15.5t-65 -37t-51 -67.5v246q0 82 2 176q12 -2 107 -2h739v-297l-572 -877q166 0 263.5 4t155 16.5t87 36t58.5 60.5v-379h-840z" />
<glyph unicode="[" horiz-adv-x="1196" d="M18 840q0 20 15 30l6 2q18 0 40.5 -21.5t35.5 -39.5q16 -18 43.5 -34.5t46.5 -16.5q12 0 18 6t6 16q0 20 -16 46t-29 49q-8 14 -23.5 21t-31.5 13.5t-28.5 14.5t-14.5 26q0 18 23.5 51t52.5 66q33 37 76 82q6 43 14 78q6 29 14 54.5t19 29.5q2 4 8 4q10 0 27.5 -6 t33.5 -15l37 -18q47 41 88 74q35 29 69 52t50 23t50 -22.5t71 -50.5q41 -33 92 -74q14 10 33 18q14 6 31.5 12.5t33.5 6.5q8 0 21 -8q10 -10 17 -35t11 -51q4 -31 5 -66q43 -45 77 -84q29 -35 53.5 -67.5t24.5 -51.5q-10 -31 -36.5 -44t-45.5 -29q-16 -12 -38.5 -38 t-22.5 -55q0 -10 6 -18q2 -4 10 -4q12 0 35 15.5t49.5 34t52 33.5t41.5 15q6 0 11 -4q6 -6 6 -12q0 -25 -25.5 -74t-59.5 -99t-65.5 -89t-46.5 -41q-12 0 -35.5 22.5t-54.5 22.5q-10 0 -16 -2q-35 -12 -57.5 -37t-36 -53.5t-18.5 -58t-5 -52.5q0 -6 1 -12t1 -10 q6 -14 23 -15q10 0 21 2t24 2q16 0 24 -14q0 -4 1 -5t1 -5q0 -16 -22.5 -63.5t-51.5 -100.5q-29 -59 -59.5 -108.5t-50.5 -49.5q-20 2 -26.5 45t-6.5 109q0 51 2 103t5 100.5t9.5 88.5t14.5 68q14 45 40.5 87t52.5 83t44 83t18 89v13q-4 63 -32.5 108t-65.5 73.5t-73.5 43 t-55.5 14.5q-20 0 -48 -7t-57.5 -23.5t-58 -46t-47.5 -72.5q-20 -41 -20 -86q0 -66 26.5 -117t40.5 -78l29 -47q51 -70 72 -164q4 -18 8 -59t6 -87t3 -89t1 -66q-2 -23 -3 -50.5t-4 -52t-8 -43t-16 -20.5q-10 -2 -29.5 23.5t-38 57.5t-32.5 59l-14 26q-2 -2 -14.5 24.5 t-28.5 49.5q-14 23 -25.5 55.5t-5.5 48.5q4 8 13 8t20.5 -3t23 -7t17.5 -4q20 4 24 24.5t1 46t-10 49t-13 36.5q-12 23 -31.5 44t-34.5 32q-12 10 -32.5 13t-30.5 3l-8 -2q-18 -8 -34 -30.5t-26 -22.5q-14 2 -48 37.5t-67.5 85t-59.5 98.5t-26 80zM451 913q0 12 18 42t43 61 t50.5 54.5t39.5 23.5q10 0 35 -22.5t50.5 -53.5t45 -60.5t19.5 -44.5q0 -18 -19.5 -47.5t-44 -58.5t-49.5 -50.5t-37 -21.5q-16 0 -41.5 22.5t-50.5 52.5t-42 59.5t-17 43.5z" />
<glyph unicode="\" horiz-adv-x="948" d="M96 1534l152 -207l500 -1069l63 31l31 82l43 -92l-129 -62l104 -227q27 -6 37 -31q6 -12 6 -25q0 -6 -4 -22q-8 -25 -33 -33q-16 -8 -26 -8q-6 0 -19 4q-27 10 -35 31q-4 8 -4 24v13.5t4 13.5l-106 225l-129 -59l-43 92l82 -31l63 31l-497 1069z" />
<glyph unicode="]" horiz-adv-x="1355" d="M70 760q0 20 6 33.5t14 23.5t19 19q-8 10 -17 22q-6 10 -11 22.5t-5 28.5q0 14 6 37t16.5 48.5t25.5 50t38 42.5q-31 4 -44.5 9.5t-13.5 23.5q0 4 1 7t1 8q4 29 25 52t78 23h80q-4 0 -8 2q-6 2 -7 11q4 8 22.5 10t22.5 20t2 30.5t9 33.5q8 16 31.5 21t39.5 5h13 q6 -2 16 -2h21q10 0 24 -2q-4 4 -6 9q-4 8 -4 18t4 16q14 18 47 19q8 0 16.5 -1t18.5 -3q20 -4 41.5 -13.5t32.5 -9.5q6 0 8 2q8 8 10 20.5t6 23t13.5 17.5t27.5 7h12q18 0 27.5 -9.5t14 -20.5t6.5 -22.5t6 -15.5q2 -2 8 -2q10 0 31.5 9.5t42.5 13.5q10 2 18 3t16 1 q31 0 48 -19q4 -6 4 -16q0 -6 -2 -10l-4 -8l-5 -9q12 2 25 2h20.5t16.5 2h12q16 0 40 -5t32 -21q10 -20 8 -32.5t2 -31.5q4 -18 22.5 -20t22.5 -12q0 -4 -8 -9q-4 -2 -6 -2h86q53 0 72.5 -23.5t23.5 -51.5q0 -4 1 -7.5t1 -7.5q0 -18 -13.5 -23t-43.5 -10q20 -18 36.5 -42.5 t26.5 -51t16.5 -50t6.5 -38.5q0 -14 -5 -25.5t-12 -21.5q-8 -10 -16 -22q10 -8 18 -19q18 -20 21 -59q0 -18 -8 -33.5t-19.5 -28t-21.5 -23.5t-15 -26q-2 -4 -2 -12q0 -23 16.5 -42.5t20.5 -43.5v-10q0 -23 -14 -33t-49 -27q23 -25 22 -51q0 -37 -39 -63q-23 -16 -49 -17 q-18 0 -31 4q-8 2 -10 6v-8q0 -10 -4 -21.5t-22 -13.5l-45 15q-16 -6 -28.5 -32t-12.5 -56q0 -31 -11.5 -42.5t-27.5 -15.5q-2 -2 -8 -2q-14 0 -26.5 10.5t-29.5 10.5q-12 0 -28 -10q-20 -12 -21.5 -43t-5.5 -52q-4 -20 -17.5 -23t-25.5 -14q-6 -4 -8 -12t-5 -16 t-10.5 -14.5t-21.5 -6.5q-29 4 -42 23.5t-26 19.5q-12 0 -25.5 -19.5t-47.5 -23.5q-12 0 -17.5 6.5t-8.5 14.5t-5 16t-8 12q-12 10 -25.5 13.5t-17.5 23.5t-5.5 51t-21.5 44q-16 10 -29 10q-16 0 -28.5 -10.5t-26.5 -10.5q-4 0 -8 2q-16 4 -27.5 15.5t-11.5 42.5t-12.5 56.5 t-28.5 31.5l-45 -15q-18 2 -22.5 13.5t-4.5 21.5v8q-6 -4 -12 -6t-12 -3t-17 -1q-27 0 -49 17q-39 27 -39 63q0 27 23 51q-35 16 -49.5 26.5t-14.5 33.5v10q4 25 20.5 44t16.5 42q0 8 -2 12q-4 14 -15.5 25.5t-21.5 25t-18 27.5t-8 35zM119 772q0 -12 4 -22.5t4 -12.5 t3 13.5t15 21.5q4 2 5 8q0 16 -17 17q-8 0 -10 -6q-4 -12 -4 -19zM125 897q0 -16 6 -26.5t14.5 -17.5t15.5 -14.5t11 -19.5q4 -16 4 -31q0 -25 -3 -54t-5 -58q0 -33 9 -56.5t9 -33.5t-20.5 -19.5t-20.5 -25.5q2 -25 29 -25q4 0 8 1t8 1q20 4 41 34t29 60q0 4 1 6.5t1 4.5 q2 8 4 15t13 17q2 2 3 4.5t5 6.5q10 10 30 10q10 0 18.5 -2t16.5 -4q9 -2 17 -4q0 4 -13 16q-14 12 -41 12h-26q-18 0 -38 -16t-32 -16q-4 0 -6 2q-8 6 -8 32q0 23 3 51.5t5 61.5q2 51 18.5 68.5t36.5 35.5q18 16 42 23.5t24 19.5q0 4 -10 5q-16 0 -44 -7.5t-47 -7.5 q-6 2 -6 10q0 4 -6 9q-4 2 -8 2l-12 -2q-6 0 -8 8q-2 4 -3 10q0 8 6.5 16.5t16.5 28.5q14 27 44 43t52 21q-6 10 -15 7t-20 7q-6 4 -15 16.5t-23 12.5q-8 0 -23 -11q-10 -8 -10 -18l4 -27q0 -14 -14 -26q-12 -10 -24.5 -29.5t-22 -42.5t-15.5 -45.5t-6 -38.5zM150 1137 q6 4 14 8q6 4 16 7t23 3q8 0 24 -4q31 -8 64 -14.5t61 -6.5h10q25 2 43.5 10.5t18.5 30.5q0 4 -4 21q20 -2 27.5 -9t27.5 -7h10q51 6 52 36l-2 9q-4 10 -9.5 23t-5.5 16q4 4 23 4q10 0 22.5 -2t22.5 -7q8 -4 21.5 -9t27.5 -9q16 -6 33 -10q-2 0 -4 4t-2 16l2 13q4 16 6 27 t18 11h8q16 0 18.5 -11t6.5 -27l2 -13q0 -8 -4 -16l-2 -4q16 4 33 10q14 4 27.5 9t21.5 9q4 2 19.5 6.5t29.5 4.5q6 0 13 -4.5t7 -6.5q0 -4 -6 -12t-10 -22l-2 -9q0 -31 51 -36h10q20 0 27.5 7t28.5 9q-4 -16 -4 -21q0 -23 18 -30.5t43 -10.5h10q29 0 61.5 6.5t63.5 14.5 q16 4 25 4q12 0 21.5 -3t17.5 -7t14 -8l-4 5t-11 11t-18.5 12t-23.5 6h-8q-23 -4 -59 -10t-64 -6q-18 0 -25 2q-31 10 -31 31q0 8 11 8h10q8 0 16 -1t15 -1q8 -2 14 -2q-8 6 -17 12q-8 4 -16 9.5t-18 5.5h-11q-14 -4 -29.5 -7.5t-27.5 -3.5q-10 0 -12 6q0 8 22.5 16.5 t40.5 8.5h33q-14 2 -25 6q-10 4 -20 6t-20 2h-9q-6 -2 -18 -2q-6 0 -12.5 2t-6.5 13q4 10 20.5 20t39.5 10q10 0 16 -2q-18 8 -41 9q-20 0 -57 -7q-27 -4 -50.5 -12t-37.5 -8q-10 0 -12 4q-10 10 -11 25q0 23 27 30q12 4 23.5 7.5t19.5 7.5t18 6q-2 0 -6 2q-4 0 -8 1t-8 1 q-6 0 -12.5 -1t-14.5 -3q-23 -6 -30 -12.5t-25 -10.5q-6 -2 -16 -2q-20 0 -31 15q-8 8 -17 28q-6 9 -8 21q-6 -12 -10 -21q-4 -8 -7 -16t-7 -12q-10 -14 -31 -15q-10 0 -16 2q-18 4 -25.5 10.5t-30.5 12.5q-8 2 -14 3t-12 1t-9.5 -1t-7.5 -1q-4 -2 -6 -2q10 -2 19 -6 q8 -4 18 -7.5t25 -7.5q27 -8 26 -30q0 -14 -10 -25q-2 -4 -12 -4q-14 0 -38 8t-50 12q-37 6 -58 7q-23 0 -41 -9q6 2 17 2q23 0 39 -11t22 -23q0 -10 -20 -11q-12 0 -19 2h-8q-10 0 -21.5 -2t-21.5 -6q-12 -4 -23 -6h37q16 0 38 -8t22 -19q-2 -4 -13 -4q-12 0 -27.5 3 t-29.5 8h-10q-10 0 -18.5 -5.5t-16.5 -9.5l-16 -12q6 0 14 2q6 0 14.5 1t16.5 1h10q10 0 10 -8q0 -20 -31 -31q-6 -2 -24 -2q-29 0 -64.5 6t-58.5 10h-8q-12 0 -23.5 -6t-18.5 -12t-11 -11zM184 442q0 -16 3 -29.5t16 -17.5q12 -6 20 -6q6 0 6 6q2 6 -12 7t-14 12 q0 10 4 24.5t14 16.5l15 2q16 0 18 -15q2 -10 9 -15t13 -5t7 8q0 8 -6.5 9t-12.5 10q-6 6 -6 20q0 18 12 23q4 0 5 1t4 1q14 0 20 -23q2 -4 2 -6t2 -6q4 -10 6 -23.5t2 -34.5v-15t-2 -17q10 6 15.5 12t11.5 6q4 0 6 -2q8 -4 24.5 -19.5t24.5 -29.5t18.5 -25.5t12.5 -40.5 t2 -38t6 -9q8 0 8 19v14q-2 10 -2 18.5v16.5v16q0 29 20.5 55.5t37.5 26.5q4 0 8 -4q14 -10 24 -10q20 0 21 18q-4 18 -25 19q-8 0 -20 -4q-16 -6 -27.5 -10.5t-28.5 -20.5q-12 -12 -20 -26.5t-18 -14.5q-8 0 -15 12q-14 23 -42.5 64t-37.5 82q-4 23 -8 43t-4 36t5 26.5 t22 12.5q23 2 22 15q0 12 -16 12q-10 0 -19 -6q-23 -16 -36 -38t-13 -42q0 -18 -3 -24.5t-19 -6.5q-14 0 -15 -6q0 -6 9 -6q4 0 14 -4t10 -8t-6 -6q-6 -4 -18.5 -9.5t-24.5 -11.5t-20.5 -13t-8.5 -16zM446 967q0 -8 7 -21q12 -23 17 -25.5t17 -9.5q12 -6 28.5 -7t27.5 -13 q6 -10 11 -25.5t5 -29.5q0 -6 -1 -10.5t-3 -8.5q-6 -14 -29.5 -23.5t-33.5 -33.5q-14 -33 -15 -55q0 -18 12 -39q8 -12 19.5 -28.5t26 -31t33 -25t40.5 -10.5q39 0 51.5 27t12.5 49v8q-2 14 -14.5 32t-26 34t-24.5 32.5t-11 30.5q4 29 15.5 61t17.5 50q4 10 5 17.5t3 13.5 q2 8 2 14q-10 -2 -21 -6q-10 -4 -19 -7t-19 -7q-12 -4 -23 -5q-16 0 -28.5 8.5t-16.5 24.5q-4 23 -4 33t-6 27q-2 4 -2 8q0 14 16 14q6 0 23 -8q8 -6 23.5 -15.5t30.5 -17.5t26.5 -14t13.5 -6q4 0 4 12q0 16 -14 25q-6 4 -18.5 14t-27 20.5t-28.5 18.5t-27 8 q-23 -4 -26.5 -5t-18.5 -28q-10 -20 -20.5 -35.5t-10.5 -31.5zM463 270q2 -16 16.5 -21t24.5 -5q0 4 -4 9t-8 9q-4 8 -5 14q0 14 15 15q14 0 18 -18.5t15 -34.5q10 -16 24 -32t23 -26q4 -8 4 -10q0 -10 -6.5 -18.5t-6.5 -18.5q0 -12 6.5 -23.5t16.5 -11.5q4 4 4 6 q0 4 -3 12.5t-5 18.5q0 12 22 12q10 0 17 -2q14 -4 23.5 -13t9.5 -15t-16.5 -23.5t-16.5 -27.5q0 -6 4 -7q10 0 22 19q4 8 11.5 11t13.5 7q8 2 12 4q6 -2 15 -4q6 -4 13 -7t13 -11q12 -18 23 -19q4 0 4 7q0 10 -16.5 27.5t-16.5 23.5t9.5 15t23.5 13q6 2 16 2q23 0 23 -14 q-2 -8 -5 -16t-3 -13q0 -4 6 -6q8 0 14 11.5t6 23.5q0 10 -6 18.5t-6 18.5q0 2 4 10q8 10 22.5 25.5t24.5 32.5q10 16 14.5 34.5t18.5 18.5t14 -15q0 -6 -4 -14q-6 -6 -6 -18l6 -6q10 0 18.5 9t10.5 23v9q0 25 -15 36q-20 16 -20 35q0 10 -8 10q-12 0 -13 -12 q0 -10 -3 -32.5t-13 -34.5t-30.5 -42t-34.5 -40q-6 -6 -18.5 -15.5t-26 -18.5t-24.5 -17.5t-15 -8.5h-25q-4 0 -15.5 8.5t-23.5 17.5t-25.5 18.5t-19.5 15.5q-14 10 -34.5 39.5t-30.5 42.5q-10 12 -13.5 34.5t-3.5 32.5q0 12 -12 12q-8 0 -8 -10q0 -18 -21 -35 q-14 -12 -14 -36v-9zM588 518q0 -8 6 -17t14 -26q10 -20 21.5 -37.5t11.5 -46.5q6 18 10 29.5t17 11.5q12 -2 19 -22.5t7 -22.5q0 2 7.5 22.5t21.5 22.5q10 0 14 -11t11 -30q0 29 11 46.5t21 37.5q8 16 14.5 25.5t6.5 17.5t-4 12q-6 6 -19 7l-39 -5q-8 0 -16 5q-12 4 -21 24 q-4 8 -8 19q-4 -10 -8 -19q-8 -18 -20 -24q-4 -2 -17 -2l-39 2q-12 0 -18 -7q-4 -4 -4 -12zM625 776q0 -14 11 -29.5t23 -25.5l13.5 -13.5t11.5 -13.5q6 -8 10 -14q4 6 11 14q12 16 24 27q12 10 23.5 26.5t11.5 32.5q-4 10 -17.5 14.5t-23.5 4.5h-8q-6 0 -6 6q0 8 12 12 q10 2 22.5 3t12.5 14q-4 12 -7.5 25t-7.5 26q-4 6 -7 12t-7 10l-8 13q2 -12 6 -23q2 -10 4 -19.5t2 -17.5q0 -10 -2 -12q-4 -6 -11 -7t-13 -1h-21q-6 0 -13 1t-12 7q-2 2 -2 12q0 18 7 37q2 10 6 23l-8 -13q-4 -4 -8.5 -10t-6.5 -12q-4 -12 -7 -25.5t-7 -30.5q0 -10 12 -10 t23 -2q14 -2 14 -12q0 -6 -8 -6h-8q-10 0 -23.5 -4t-17.5 -19zM625 1053q0 -6 6 -13q12 -14 26 -24t37 -10t37 10t27 24q6 6 6 13q0 10 -8 17t-13 13q-4 4 -4 15l2 26q0 12 -10 13q-6 0 -14 -9q-4 -4 -4 -16q0 -14 3 -30.5t3 -22.5q0 -8 -12 -12q-6 -2 -13 -3q-6 0 -12 3 q-12 4 -12 12q0 6 3 22.5t3 30.5q0 12 -4 16q-8 8 -15 9q-10 0 -10 -13l2 -26q0 -10 -4 -15q-4 -6 -12 -13t-8 -17zM717 647q0 -10 2 -23.5t9 -24.5t19.5 -19.5t32.5 -8.5q23 0 41.5 10.5t32.5 25t25.5 30.5t19.5 29q12 20 12 39q0 23 -14 55q-10 25 -33.5 34t-29.5 23 q-2 4 -3.5 8t-1.5 11q0 14 5.5 29.5t11.5 25.5q10 12 26.5 13t28.5 7t17.5 9.5t17.5 25.5q6 12 6 21q0 16 -10 31.5t-21 35.5q-6 12 -10 18.5t-9 8.5t-11.5 3t-18.5 3q-10 0 -24.5 -8t-27.5 -18.5t-25.5 -20.5t-18.5 -14q-14 -8 -14 -25q0 -12 4 -12q2 0 13 6t26.5 14 t31 17.5t23.5 15.5q16 8 22 8q16 0 17 -14q0 -6 -2 -8q-6 -16 -6 -26.5t-4 -33.5q-4 -16 -16.5 -24.5t-29.5 -8.5q-10 0 -22 5q-10 4 -19.5 7t-19.5 7t-20 6q0 -6 2 -14q2 -6 3 -13.5t5 -17.5l17 -51t16 -62q0 -14 -11.5 -29.5t-26 -31.5t-25.5 -33.5t-13 -32.5v-8zM842 391 q0 -16 20 -16q10 0 25 10q4 4 8 4q16 0 36.5 -26.5t20.5 -55.5v-16q0 -8 -1 -16.5t-1 -18.5v-14q0 -18 8 -19q6 0 6.5 9.5t2.5 37.5q2 29 12 40.5t18 25.5t24.5 29.5t25.5 19.5q2 2 6 2q6 0 11 -6t15 -12q-4 16 -4 24q0 14 4 27.5t8 28.5v16l3 6q6 23 20 23q2 0 3 -1t5 -1 q12 -4 12 -23q0 -14 -6 -20q-6 -8 -12 -9.5t-6 -11.5q0 -6 6 -6t13.5 5t9.5 15q2 14 18 15l14 -2q10 -2 14.5 -16.5t4.5 -24.5t-14.5 -11.5t-12.5 -7.5q0 -6 6 -6q8 0 21 6q12 4 15 17.5t3 29.5q0 8 -8 15.5t-20.5 13.5t-24.5 11t-18 10q-6 2 -7 6q0 4 10.5 8t14.5 4 q8 0 8 6t-10 6h-10q-10 0 -13.5 6.5t-3.5 24.5q0 20 -13 41.5t-36 38.5q-10 6 -18 6q-16 0 -17 -12q0 -12 23 -15q16 -2 21 -12t5 -27q0 -16 -4 -36.5t-8 -42.5q-8 -41 -36.5 -82t-43.5 -64q-6 -12 -14 -12q-10 0 -18.5 14.5t-20.5 26.5q-16 16 -27.5 20t-27.5 11 q-12 4 -21 4q-23 0 -24 -21zM1020 668q0 -2 16.5 3t34.5 5q20 0 31 -10q14 -16 16 -18.5t6 -18.5q0 -4 4 -17q8 -31 29 -60.5t41 -33.5q4 0 8 -1t8 -1q27 0 29 27q0 16 -20.5 24t-20.5 19q0 10 9.5 34.5t9.5 61.5q-2 25 -5.5 53.5t-3.5 52.5q0 14 5 31q2 12 10 19.5t16 14.5 t14.5 17.5t6.5 26.5t-6.5 38.5t-15.5 45.5t-21.5 42t-24.5 30q-14 10 -14 26q0 8 2 15.5t2 13.5q0 8 -10 16t-21 9q-16 0 -26.5 -11.5t-14.5 -15.5q-8 -8 -20 -8q-10 0 -15 -6q23 -4 52.5 -20.5t44.5 -43.5q10 -20 16 -28.5t6 -16.5q0 -6 -2 -10q-2 -8 -8 -8l-12 2 q-4 0 -9 -2q-6 -4 -6 -13q0 -4 -10 -6q-14 0 -42 7.5t-44 7.5q-10 0 -10 -7q0 -10 23.5 -17t41.5 -24q20 -18 35.5 -35.5t20.5 -68.5q2 -33 5 -61.5t3 -51.5q0 -27 -8 -32q-2 -2 -7 -2q-12 0 -31.5 16t-37.5 16h-27q-27 0 -41 -12q-12 -12 -12 -14zM1239 780q0 -6 4 -8 q12 -6 15.5 -21.5t3.5 -13.5t4 12.5t4 22.5q0 6 -4 19q-2 8 -11 8q-6 0 -11 -6.5t-5 -12.5z" />
<glyph unicode="^" horiz-adv-x="954" d="M33 672q0 41 2 73.5t6 57.5q4 29 10 51q8 -47 25 -88q14 -35 34.5 -69.5t55.5 -49.5q-16 49 -23.5 101.5t-7.5 93.5q0 84 9.5 147.5t9.5 122.5q0 23 -2 33v37q0 6 -1 8t-1 4q-6 37 -7 66q0 98 29 172v-27q0 -59 14.5 -86t36.5 -27q18 0 37 19q16 16 33.5 35.5t42 36 t58.5 27.5t83 11t83 -11t58.5 -27.5t42 -36t33.5 -35.5q18 -18 37 -19q23 0 37 27t14 86v27q29 -74 29 -172q0 -29 -6 -66q0 -2 -1 -4t-1 -8v-37q-2 -10 -2 -33q0 -59 9 -122.5t9 -147.5q0 -41 -7 -93.5t-24 -101.5q33 14 54.5 49t36.5 70q16 41 24 88q4 -23 8 -51 q4 -25 7.5 -57.5t3.5 -73.5q0 -92 -25 -206t-102 -216q12 37 16 73.5t4 69.5q0 23 -1 40.5t-3 31.5q-2 16 -4 29q-27 -16 -51 -39q-23 -20 -48.5 -52t-50.5 -79t-45 -115t-37 -129q-18 -72 -32 -150q8 115 22 226q12 94 32.5 198.5t51.5 182.5q23 55 35 134t12 163 q0 76 -11 147.5t-37.5 128.5t-67.5 92t-103 35q-61 0 -102 -35t-67.5 -92t-38 -129t-11.5 -147q0 -84 12.5 -163t34.5 -134q31 -78 51.5 -182.5t32.5 -198.5q14 -111 23 -226q-14 78 -33 150q-16 61 -36.5 128.5t-45.5 115.5q-25 47 -51.5 78.5t-48.5 52.5q-25 23 -50 39 q-2 -12 -4 -29q-2 -14 -3 -31.5t-1 -40.5q0 -33 4 -69.5t17 -73.5q-78 102 -102.5 216t-24.5 206zM373 860q0 63 30.5 107.5t73.5 44.5t74 -44t31 -108q0 -63 -31 -107t-74 -44t-73.5 44t-30.5 107z" />
<glyph unicode="_" horiz-adv-x="1452" d="M69 -397.5q1 22.5 5 28.5q4 12 9 20.5t17.5 14.5t35 9t63.5 8q78 4 136 3t85 1q25 0 42 10t42 24t62.5 32t74.5 22q-10 6 -11 15t-3 20l-9 24q4 -4 11 -6q4 -4 7 -5t5 -5h12l9 -8q10 0 14 -3q12 -6 -10 -10q-6 -4 -14.5 -6t-0.5 -8q8 -4 13.5 -2t21.5 -4q8 -4 13.5 -4 h9.5t6 2q-4 6 -6 14q-2 6 -3 14.5t3 14.5q12 -16 14 -29q2 -8 2 -12q4 -2 10 -4q10 -4 17 2q4 2 4 5t0 -1q4 0 12 -4t12 -2l2 4l2 -2h60.5t103 1t111.5 2t86 3t64.5 3t63.5 2t52.5 2t32.5 3q18 6 27.5 8t19.5 -22q10 -23 7 -37t-13 -25q-10 -14 -23.5 -11t-36.5 5 q-10 0 -22 1t-25 3l-28 4q-2 -8 -11 -14q-14 -14 -51 -16l-459 -6q-14 2 -22 0q-20 -4 -21 -19q2 -14 -12 -32.5t-47 -18.5q-14 0 -22.5 3t-16.5 7t-18.5 7t-26.5 3q-33 0 -50.5 -2t-23.5 -18q-10 -10 -6 -19.5t0 -9.5q-4 -4 -9 7.5t-15 9.5q-12 -4 -21.5 -15.5t-7.5 2.5 q-18 -10 -55 -31.5t-105 -43.5q-66 -20 -105.5 -34t-66.5 -3q-12 6 -17 29.5t-6 50t0 49zM455 -395h4q2 0 3 -1t3 -1q4 -4 7 3t9 13l-20 -10q-4 -2 -6 -4zM537 -354h10q4 0 8 -1t8 1q4 -2 9.5 -2t9.5 -2t8 -2v6q0 4 -1 6t1 6q0 4 4 4h2h-23q-6 0 -22 -8q-8 -4 -14 -8z M596 -342q0 -20 12.5 -26.5t32.5 -10.5q18 -2 31.5 6t17.5 19q4 12 -2 22t-41 4q0 2 -2 -2t-2 -8q-2 -4 3 -16.5t3 -14.5q-4 0 -9 14.5t-5 18.5q4 4 2 6q-2 0 -2 2t-4 0q-35 -6 -35 -14z" />
<glyph unicode="`" horiz-adv-x="1720" d="M31 1022l55 371h307l25 -52l24 52h930l23 -52l24 52h285q0 -2 -5 -39t-33 -92.5t-87 -124t-166 -136.5v-178q-59 -8 -106 -30q-41 -18 -74 -52t-33 -90q0 -45 22.5 -70.5t53.5 -39t64.5 -16.5t56.5 -3h24l138 -522h-1440l151 516q59 6 107 25q41 16 73.5 41.5t32.5 70.5 v11q-4 39 -24.5 60t-46 32.5t-52 14.5t-41.5 3h-14q2 8 4 21q2 10 3 23t1 30q0 25 -5 52.5t-17 50t-35 39t-59 20.5q-47 4 -80 6t-51 4q-23 2 -35 2zM100 1126q92 0 165 -29.5t93 -76.5q4 33 7.5 89t7.5 112q2 66 4 135l-256 6zM170 47h1337l-121 430h-1089zM258 86 q31 92 58.5 177t41.5 181h76q-8 -45 -17 -87t-22.5 -85t-31 -89t-41.5 -97h-64zM399 846h957q2 10 2 25.5v33.5q0 53 -4 130t-8 149q-6 82 -13 170h-870zM401 504h197q119 10 180.5 36.5t61.5 57.5q0 29 -58.5 64.5t-185.5 72.5h463q-12 -10 -21 -26q-8 -14 -13 -34t-5 -48 q0 -27 10 -49.5t23.5 -39t25 -25.5t13.5 -9h151q-29 23 -56.5 55.5t-27.5 83.5q0 35 19 78q-27 -23 -37.5 -46.5t-10.5 -45.5q0 -33 14.5 -62.5t31.5 -52.5q-23 10 -33 25q-27 25 -35 41t-8 61q0 25 9 44.5t19 35.5q12 18 29 33h-651q29 -14 49 -40t20 -52q0 -16 -7 -46 t-38 -61q-12 -12 -20 -16q14 18 25.5 41.5t11.5 52.5q0 23 -10.5 44t-34.5 44q8 -31 8 -62q0 -41 -17.5 -72.5t-46.5 -54.5q-10 -8 -21 -15t-24 -13zM1255 444h60q2 -31 9 -74.5t19.5 -93t27.5 -98.5t32 -92h-37q-47 104 -70.5 186t-40.5 172zM1421 1196q78 27 128 55.5 t79 55.5q35 29 51 59h-247zM1425 1067q0 -4 5 -4q10 0 42.5 24.5t68.5 56.5t64.5 62.5t28.5 42.5q-18 -2 -53 -23.5t-68.5 -51t-59.5 -59.5t-28 -48z" />
<glyph unicode="a" horiz-adv-x="901" d="M10 6q18 14 41 46t27 73q2 12 9 51t17.5 95.5t23.5 124t26 136.5q31 162 69 361l-65 90l417 248q-6 -31 -10 -62q-4 -29 -3 -60.5t9 -59.5q10 -31 28.5 -103t41.5 -147q23 -88 53 -191l154 45l29 -131l-140 -59q20 -102 45 -193q20 -78 47 -154.5t56 -115.5h-377 q16 18 31 41q12 18 22 39.5t10 44.5t-6 65.5t-12 85.5q-8 51 -18 109q-76 -27 -134 -66q-49 -35 -87 -85q-29 -39 -29 -89q0 -15 2 -30q51 -66 78.5 -90.5t25.5 -24.5h-62.5t-129.5 2zM346 449l154 102l-88 254z" />
<glyph unicode="b" horiz-adv-x="870" d="M-6 952l450 277l412 -457l-268 -242l258 -81q2 -39 4 -80t2 -76q0 -39 -2 -78t-11.5 -77t-30 -72.5t-56.5 -65.5h-684l11 18q11 17 25.5 44.5t25.5 62.5t11 72v651zM365 154h157q43 0 68.5 28.5t25.5 61.5v73l-251 103v-266zM365 653l122 131l-122 127v-258z" />
<glyph unicode="c" horiz-adv-x="634" d="M39 195v745l280 303l306 -317l-172 -115l-91 129l-59 -80v-610l57 -70l166 182l74 -249l-266 -240z" />
<glyph unicode="d" horiz-adv-x="860" d="M-25 1010l371 217l488 -393q0 -190 1 -331v-29q1 -122 -7 -210q-8 -98 -31 -161.5t-68 -102.5h-680l11 18q12 17 25 44.5t24.5 62.5t11.5 72v729zM346 193h156q43 0 68.5 29.5t25.5 60.5v442l-250 139v-671z" />
<glyph unicode="e" horiz-adv-x="712" d="M-45 895l21 15q22 16 57 40.5t79 55t91 63.5l250 172l243 -332l-106 -75l-133 133l-86 -80v-238h225v-221l-47 41h-178v-272q0 -6 6 -7q70 0 118 4.5t82.5 15.5t61.5 32.5t55 56.5v-299h-639q18 27 33 51q12 23 22.5 48.5t10.5 47.5q0 16 -1 55.5t-2 90.5t-2 111.5 t-1 121.5q-4 143 -6 312q-43 14 -78 26q-29 10 -52.5 18.5t-23.5 12.5z" />
<glyph unicode="f" horiz-adv-x="686" d="M-76 924l22 15q23 15 59 40t82 56.5t95 64.5q113 76 260 174l248 -334l-117 -86l-127 137l-98 -78v-249h230v-232l-46 49h-184v-327q0 -29 17.5 -56.5t40.5 -50.5q25 -25 57 -47h-438q18 23 34 47q14 23 25.5 50.5t11.5 56.5q0 14 -1 53t-2 91t-2 114.5t-1 124.5 q-4 145 -6 321q-45 16 -80 31q-31 12 -55.5 21.5t-24.5 13.5z" />
<glyph unicode="g" horiz-adv-x="894" d="M55 254v647l322 346l344 -360l-195 -131l-102 145l-68 -90l-2 -512l64 -63l172 135l-27 61h-145v152l325 -6l189 -680l-219 301l-320 -310z" />
<glyph unicode="h" horiz-adv-x="1028" d="M-47 924q0 2 29.5 27.5t73.5 64.5t95.5 84t95.5 84t73 64l28 26v-684q66 47 129.5 77.5t134.5 51.5v125l-118 82l344 342v-514l174 6v-182l-174 -29v-393q0 -29 10 -53.5t24.5 -45t30 -35t25.5 -22.5h-391q25 31 51 65.5t26 92.5v350q-66 -18 -132 -48t-134 -91v-215 q0 -29 17.5 -56.5t40.5 -50.5q25 -25 57 -47h-410q18 23 35 47q14 23 25.5 50.5t11.5 56.5q0 14 -1 53t-2 91t-2 114.5t-1 124.5q-4 145 -6 321q-45 16 -80 31q-31 12 -55.5 21.5t-24.5 13.5z" />
<glyph unicode="i" horiz-adv-x="434" d="M-14 1174h450q-47 -43 -78.5 -104.5t-31.5 -115.5q0 -47 1 -106.5t3 -150.5t3 -222t1 -321q0 -29 17.5 -56.5t39.5 -50.5q25 -25 58 -47h-439q18 23 35 47q14 23 25.5 50.5t11.5 56.5v802q0 51 -24.5 114t-71.5 104z" />
<glyph unicode="j" horiz-adv-x="819" d="M41 221v291q20 -47 75.5 -92t119 -81t119 -57.5t73.5 -21.5v672h-18q-16 0 -41 -3t-51.5 -13.5t-52 -31t-42.5 -55.5v56.5t1 76t1 77.5v61q0 20 -7 34.5t-17 24.5t-23 17l547 -2q-23 -16 -33 -32t-10 -50v-740q0 -78 31.5 -102.5t103.5 -30.5l-182 -221 q-94 0 -183.5 17.5t-167 48t-141 70.5t-102.5 87z" />
<glyph unicode="k" horiz-adv-x="856" d="M0 961l365 307v-613l210 289v303l246 -375l-237 -331l164 -99q-4 -16 -7 -39q-2 -18 -3 -42.5t-1 -53.5q0 -39 4 -83t15.5 -85t32 -77.5t53.5 -61.5h-248q-27 23 -49 47q-18 23 -32.5 50.5t-14.5 58.5q0 29 -1 58.5t-3 53.5q-2 29 -2 56l-127 102q0 -59 2 -113 q0 -47 1 -94t1 -76q0 -31 11 -57.5t28 -44.5q16 -23 38 -41h-196h-73t-63.5 -1t-45.5 -2l-19 -1q0 -2 14.5 14.5t32 45t32.5 65.5t15 78v655z" />
<glyph unicode="l" horiz-adv-x="798" d="M-2 219q70 6 92.5 30.5t22.5 102.5v488q-35 35 -72 63.5t-41 30.5l365 336q0 -115 1 -187.5t1 -150.5v-672h18q29 0 83 2t111.5 13.5t109.5 36t77 69.5v-291l-6 -10q-12 -18 -22.5 -31.5t-32 -23t-57.5 -14.5t-99.5 -8t-157.5 -4t-231 -1z" />
<glyph unicode="m" horiz-adv-x="1028" d="M39 1012l285 192q23 -72 54.5 -152.5t63 -159.5t59 -150.5t46.5 -125.5q4 8 15 45t25.5 88.5t31 112t32 114.5t27.5 96t18 58h316q-20 -14 -35 -30q-14 -14 -24.5 -32.5t-10.5 -39.5v-915q6 -31 21.5 -53.5t31 -37t25.5 -20.5t8 -4h-164h-159q8 8 16 18q6 10 11 24.5 t5 37.5v631l-190 -695l-207 555v-209q0 -82 -1 -159.5t-1 -106.5q0 -25 7 -42t15 -29q8 -14 23 -25h-340q20 14 37 33q14 16 26.5 34.5t16.5 40.5v781q0 2 -13.5 22.5t-29.5 42.5q-18 27 -41 60z" />
<glyph unicode="n" horiz-adv-x="903" d="M-59 993l45 156q113 -31 186.5 -57.5t138 -66.5t135 -105.5t177.5 -171.5v118q0 14 -15.5 30.5t-34.5 33.5q-23 18 -49 37l312 241q-2 -193 -3.5 -346t-2.5 -280t-1 -236.5v-216.5q0 -41 25 -78t43 -51h-330q-2 0 56 119v323l-285 267v-580q0 -31 9 -55.5t22 -40.5 q12 -20 30 -33h-376l51 129v780z" />
<glyph unicode="o" horiz-adv-x="796" d="M31 217v733l348 287l336 -287v-733l-336 -332zM262 293l117 -111l117 111v561l-117 90l-117 -90v-561z" />
<glyph unicode="p" horiz-adv-x="868" d="M-6 958l455 283l415 -461q-59 -45 -124.5 -94t-132 -97t-128 -91t-110.5 -76q0 -55 2 -109q2 -45 3 -94t1 -84q0 -23 12 -46t29 -44q18 -23 43 -45h-391q20 29 36 61q14 29 26.5 65t12.5 73v657zM369 659l123 134l-123 127v-261z" />
<glyph unicode="q" horiz-adv-x="786" d="M23 201v766l385 305l337 -305v-832l-67 -69q45 -45 74.5 -76t65.5 -51.5t89.5 -30.5t145.5 -15.5t234.5 -6.5t357.5 -1v-135q-215 -2 -365 -2t-254 4t-173 16.5t-119 35t-91 57.5t-92 86l-143 -107zM276 283l138 -127l28 20q-35 35 -41 63.5t8.5 42t42 8.5t60.5 -38 l31 31v571l-129 107l-138 -107v-571z" />
<glyph unicode="r" horiz-adv-x="874" d="M0 961l446 276l422 -461l-272 -235l164 -99q-4 -16 -6 -39q-2 -18 -3 -42.5t-1 -53.5q0 -39 4 -83t15 -85t31.5 -77.5t53.5 -61.5h-248q-27 23 -49 47q-18 23 -32.5 50.5t-14.5 58.5q0 29 -1 58.5t-3 53.5q-2 29 -2 56l-127 102q0 -59 2 -113q0 -47 1 -94t1 -76 q0 -31 11 -57.5t28 -44.5q16 -23 39 -41h-197h-72.5t-63.5 -1t-37 -1l-28 -2q0 -2 14.5 14.5t32 45t33 65.5t15.5 78v655zM377 655l123 133l-123 132v-265z" />
<glyph unicode="s" horiz-adv-x="788" d="M-72 977l338 276q70 -33 151 -66.5t156.5 -77.5t137 -101.5t96.5 -133.5l-29 -30l-39 -2l17 18l-43 -6l18 23l-39 -13l17 27l-33 -23l8 29l-29 -29l4 35l-88 -41l11 -6l45 2l-17 -16l37 6l-14 -19l37 15l-21 -19l41 11l-14 -23l39 8l-19 -22l35 2l-47 -45 q-29 10 -57.5 21t-51 24.5t-38 30t-15.5 34.5q0 14 8.5 22.5t17.5 12.5t17 7t8 7t-13 4.5t-32 0.5h-49q-23 0 -53.5 -6.5t-58 -20.5t-47 -35.5t-19.5 -52.5q0 -35 6 -63.5t25.5 -51t57.5 -40t104 -27.5q61 -10 107 -32t78 -63t47 -106.5t15 -163.5q0 -35 -12 -79t-41 -83 t-75 -66.5t-111 -27.5l-166 -10q-100 0 -165 14t-102.5 40t-54 62.5t-18.5 81.5v17q0 74 45 117t149 43q-41 -20 -59 -45t-18 -48q0 -43 57 -76.5t160 -33.5q70 0 116 32.5t46 112.5q0 86 -42 126t-120 54q-84 14 -160 22.5t-174 14.5l29 162l92 -14q-18 23 -26.5 55.5 t-8.5 67.5q0 45 10 85t25 62zM633 1008l2 -33l82 -37q-29 14 -38 25.5t-13 18.5t-9.5 13t-23.5 13z" />
<glyph unicode="t" horiz-adv-x="753" d="M20 836v344h701v-320q-23 47 -84.5 61.5t-153.5 14.5v-705q0 -53 20.5 -97t47.5 -73q29 -37 67 -61h-499q0 -4 18.5 13.5t40 46t38.5 65.5t17 72v739q-23 0 -53 -3t-61 -13.5t-57.5 -30t-41.5 -53.5z" />
<glyph unicode="u" horiz-adv-x="821" d="M-10 989q27 14 67.5 32.5t86.5 42t95.5 49.5t92.5 52v-772l108 -166l111 166v500q0 10 -18.5 25.5t-40.5 31.5q-25 18 -58 39q55 31 113.5 61.5t104.5 55t76 40.5l30 17v-831q0 -39 -34 -102.5t-84 -125t-105.5 -105.5t-98.5 -44q-27 0 -62.5 20.5t-75.5 53t-79 73.5 t-68.5 82t-49 77t-19.5 58v578q-18 33 -41.5 53.5t-50.5 38.5z" />
<glyph unicode="v" horiz-adv-x="794" d="M-4 1128q2 -2 27.5 -2h64.5h166q45 0 90 2q-10 -8 -18 -18q-18 -23 -19 -53v-10q0 -10 6 -42t15.5 -78t20.5 -101.5t24 -110.5q27 -131 61 -295q2 4 8.5 46t15.5 104.5t20 135t21.5 139t18.5 118t10 69.5l2 21q0 23 -6 36t-14 23t-18 16h329q-14 -10 -28 -26 q-12 -14 -28.5 -33.5t-31.5 -46.5q-10 -18 -26.5 -89t-36 -168t-40 -208t-36.5 -206t-26.5 -163.5t-10.5 -83.5q0 -23 9 -41t20 -32q12 -16 30 -31h-405q18 14 35 31q14 14 25.5 31.5t11.5 37.5q0 12 -15.5 79t-38 162t-50 204.5t-52.5 208t-44.5 170t-25.5 90.5 q-14 55 -39.5 85.5t-21.5 28.5z" />
<glyph unicode="w" horiz-adv-x="1222" d="M-4 1133h350q-10 -8 -18 -17q-6 -8 -11.5 -20.5t-5.5 -28.5q2 -12 8.5 -47t14.5 -83t19.5 -104.5t21.5 -113.5q25 -135 57 -297l176 690l183 -672q20 145 40 273q8 53 16.5 106t16.5 100.5t13.5 83t9.5 52.5q0 23 -7.5 37t-17.5 24t-22 17h385q-12 -10 -25 -27 q-12 -14 -27.5 -33.5t-31.5 -46.5q-10 -16 -27.5 -87t-37 -168t-40 -207.5t-36 -207t-25.5 -167t-10 -85.5q0 -25 8 -43t18 -32q12 -16 29 -29h-375q12 6 21 14q8 8 14 21.5t6 32.5q0 16 -11 73.5t-24 118.5q-14 72 -33 160q-10 -29 -21 -76t-20.5 -99t-16.5 -101.5 t-7 -80.5q0 -18 4 -29t10 -20q8 -8 17 -14h-373q18 14 35 31q14 14 25.5 31.5t11.5 39.5q0 12 -15.5 79t-38 163t-50 205.5t-53.5 208t-44.5 170t-24.5 90.5q-8 29 -17 51.5t-20 36.5q-10 16 -24 27z" />
<glyph unicode="x" horiz-adv-x="894" d="M2 956l307 277v-418l131 -156l129 156v127l-98 55l315 236v-543l-176 -151l164 -97q-4 -16 -6 -36q-2 -16 -3 -39t-1 -52q0 -39 4 -84t16.5 -89t33 -80.5t54.5 -61.5h-249q-27 23 -50 47q-18 23 -32.5 48.5t-14.5 54.5q0 31 -1 62.5t-1 55.5q-2 29 -2 56l-82 102 l-86 -102q-2 -27 -4 -56q-2 -25 -2 -56.5v-61.5q0 -29 -15.5 -54.5t-31.5 -48.5q-23 -25 -47 -47h-244q33 25 53.5 61.5t33 80.5t16.5 89t4 84q0 29 -2 51.5t-4 39.5q-2 20 -5 36l162 97l-170 151v203z" />
<glyph unicode="y" horiz-adv-x="866" d="M-20 936l333 299v-573l138 -123l112 123v468h305q-25 -18 -45 -36q-16 -16 -30.5 -36t-14.5 -38v-891l-311 -438l-408 508l392 -162l112 156v169l-119 -147l-364 367v286z" />
<glyph unicode="z" horiz-adv-x="870" d="M-2 735q33 25 53.5 62t32.5 81t16 89t4 84q0 29 -2 51t-4 39q-2 20 -4 37h447h245v-473l-456 -519h225q-10 23 -12 46.5t-4 43.5q-2 23 0 48h225q0 -39 4 -86.5t16.5 -91.5t33 -82.5t54.5 -63.5h-862q66 47 86.5 100.5t20.5 130.5q0 29 -2 51.5t-4 39.5q-2 20 -5 36 l463 471l6 107h-235q-2 -8 -2 -16q-2 -8 -2 -17.5v-17.5q0 -29 -15.5 -54.5t-31.5 -48.5q-23 -25 -47 -47h-244z" />
<glyph unicode="{" horiz-adv-x="1148" d="M12 614l234 66q12 25 33 47q16 18 42.5 33.5t63.5 15.5q35 0 61.5 -15.5t42.5 -33.5q20 -23 33 -47l465 776h285l-334 -170l-164 -676l172 -673l328 -164h-287l-465 774q-12 -27 -33 -49q-16 -18 -42.5 -32.5t-61.5 -14.5t-61.5 14t-42.5 33q-20 23 -35 49z" />
<glyph unicode="|" horiz-adv-x="432" d="M29 -41v102l61 -61h72v1180l51 252l51 -252v-1180h72l61 61v-102h-143v-250q20 -20 20 -45t-18 -43q-16 -16 -43 -16q-29 0 -43 16q-18 18 -18 43t20 45v250h-143z" />
<glyph unicode="}" horiz-adv-x="1110" d="M-156 -227l328 164l172 673l-164 676l-334 170h285l465 -776q12 25 33 47q16 18 41.5 33.5t62.5 15.5q35 0 62.5 -15.5t44.5 -33.5q20 -23 32 -47l234 -66l-234 -67q-14 -27 -34 -49q-16 -18 -43 -32.5t-62 -14.5t-61.5 14t-42.5 33q-20 23 -33 49l-465 -774h-287z" />
<glyph unicode="&#xa2;" horiz-adv-x="753" d="M4 1028q57 49 117 90q51 35 111.5 65.5t115.5 35.5q12 2 24.5 2h22.5q92 0 152.5 -31t87.5 -88q27 -63 27 -121q0 -39 -10.5 -74t-33.5 -57q-27 -29 -58.5 -48.5t-72.5 -19.5q-20 0 -45.5 7.5t-46.5 17.5q49 4 86 18.5t61.5 34t37 40t12.5 38.5q0 20 -6 45t-19.5 47.5 t-34 39.5t-49.5 24q-31 6 -65 6q-53 0 -101.5 -21.5t-62.5 -83.5q-10 -41 -14 -115.5t-4 -150.5q0 -72 4 -130t14 -75q16 -29 48 -58.5t75 -29.5q20 0 39 8q35 14 56.5 49t35.5 72q16 43 24 92v-458q-31 29 -85 83t-164 109q-47 25 -90 42.5t-75 29.5t-49.5 20.5t-17.5 12.5 q2 8 35 16t53 35q20 25 24.5 71t4.5 93v69q0 27 -1 64t-5 71.5t-15.5 63.5t-29.5 39q-16 10 -33.5 13t-34.5 3q-16 0 -33 -4q-8 -2 -12 -2zM254 1217l6 108l55 -25q-2 4 -4 13q-4 16 -4 35q0 43 41 43q20 0 31.5 -13.5t11.5 -29.5q0 -14 -8 -31q-4 -8 -6 -14l63 30v-116 l-49 10l-49 -1295q-6 41 -10 79t-7 87t-4.5 119t-3.5 172q6 55 9.5 140t3.5 184q0 72 -1 145.5t-4 141t-7.5 126t-8.5 99.5zM426 985l172 -184l18 -131l-98 84zM438 1024l82 203l98 53l-22 -86zM453 991l239 43l158 -26l-158 -39z" />
<glyph unicode="&#xa3;" horiz-adv-x="1212" d="M14 608l52 62l-52 63h33l43 -43l-29 43h29l47 -43l-35 41h31l60 -45h581l-84 66l297 -82l-297 -82l86 65h-583l-58 -45h-33l35 41l-47 -41h-29l31 41l-43 -41h-35zM33 262q57 35 99 52.5t71.5 25.5t48 13t30 19.5t15.5 40t4 76.5q0 94 -9 145.5t-22.5 80t-30 47 t-29.5 47.5t-22.5 81t-9.5 148q0 102 22.5 165t63.5 114q47 20 93 47t93.5 51.5t94.5 42t94 17.5q49 0 96 -17.5t93 -42t92.5 -51.5t93.5 -47q41 -51 63.5 -122t22.5 -175h-320q0 49 -3 82t-16 62.5t-42 64.5t-80 88q-51 -53 -80 -88t-42 -65.5t-16 -62.5t-3 -81 q0 -70 9 -110t22.5 -71.5t29.5 -63.5t29.5 -84t23 -133t9.5 -212h8q76 0 129 -23.5t100 -51t94 -51t111 -23.5q35 0 67.5 12t65.5 45v-354q-35 -16 -82 -17q-66 0 -141.5 30t-157.5 66.5t-171 66.5t-181 30q-80 0 -162 -31t-166 -108z" />
<glyph unicode="&#xa4;" horiz-adv-x="1488" d="M-2 969l369 78l71 364l215 -385q86 18 174 0l215 385l72 -364l369 -78l-389 -213q10 -41 10 -85t-10 -85l387 -217l-365 -72l-78 -369l-213 391q-86 -23 -170 0l-213 -391l-77 369l-365 72l387 217q-10 41 -10 85t10 85zM434 672.5q0 -58.5 22.5 -114.5t67.5 -101 t101.5 -67.5t115 -22.5t114.5 22.5t101 67.5t66.5 101t21.5 114.5t-21.5 115t-66.5 101.5t-101 66.5t-114.5 21.5t-115 -21.5t-101.5 -66.5t-67.5 -101.5t-22.5 -115z" />
<glyph unicode="&#xa5;" horiz-adv-x="997" d="M-4 1430h440q-16 -10 -26 -27q-10 -14 -18.5 -33.5t-8.5 -46.5v-461l147 -153l142 153v473q0 35 -8.5 55.5t-38.5 39.5h417q-33 -20 -55 -44q-23 -20 -39 -43.5t-16 -48.5v-516l-258 -286v-363q0 -31 10 -55.5t25 -40.5q16 -20 36 -33h-458q25 16 45 37q16 16 31.5 38.5 t15.5 49.5v432l-307 303v422q-8 35 -21.5 62.5t-27 47t-21.5 29t-6 9.5zM61 160l52 61l-52 64h33l43 -43l-28 43h28l47 -43l-34 41h30l60 -45h557l-84 65l297 -82l-297 -82l86 66h-559l-58 -45h-32l34 41l-47 -41h-28l30 41l-43 -41h-35zM61 461l297 82l-84 -66h557l60 45 h31l-35 -41l47 43h29l-29 -43l43 43h33l-52 -63l52 -62h-35l-43 41l31 -41h-29l-47 41l35 -41h-33l-58 45h-559l86 -65z" />
<glyph unicode="&#xa7;" horiz-adv-x="997" d="M-2 387l229 473q6 8 6 14l-159 93l229 473q2 2 2 4t2 4q0 2 2 4q0 10 -9 21.5t-21 23.5h530q-20 -14 -21 -43q0 -4 2.5 -10t4.5 -14l202 -392h-266q10 12 19.5 21.5t9.5 17.5l-2 8q-25 74 -53.5 117t-62.5 64.5t-73 26.5t-84 5l-96 -231l615 -350l-230 -471 q-6 -10 -6 -19l160 -90l-230 -473q-4 -4 -4 -6q-2 -2 -2 -4q0 -12 9.5 -22.5t21.5 -24.5h-530q20 18 20 45q0 6 -6 22l-203 392h266q-10 -10 -19 -20.5t-9 -18.5l2 -9q25 -74 53.5 -115.5t61 -63t70.5 -27t81 -5.5h8l94 230zM338 549q23 -53 46.5 -85t51.5 -48l8 -4 q31 -16 66 -20.5t76 -4.5h8l70 168q-20 49 -43 79t-48 48l-24 12q-29 14 -62.5 18.5t-70.5 4.5h-8z" />
<glyph unicode="&#xa9;" horiz-adv-x="1705" d="M14 737q0 127 48.5 238.5t131 194.5t194.5 131.5t239 48.5t238.5 -48.5t194.5 -131.5t131 -194.5t48 -238.5q0 -102 -30.5 -196.5t-87 -173t-133.5 -136t-169 -84.5l-8 93q76 29 140.5 78t110.5 113.5t71.5 142t25.5 163.5q0 98 -32.5 185.5t-89 156t-135.5 115.5 t-171 66q0 12 -2 26t-18 14q-8 0 -20.5 -4t-24.5 -14v25q0 23 -16.5 37t-41.5 14q-29 0 -45 -21.5t-16 -46.5l8 -18q-10 6 -22.5 11t-18.5 5q-8 0 -10 -6t-2 -12v-15q-88 -20 -163 -68t-129 -117t-85 -154t-31 -179q0 -100 34 -189t94.5 -159t142 -117t178.5 -61q6 -2 22 -2 l4 -82q-14 0 -34 4q-111 16 -206.5 69.5t-165 134.5t-109.5 183.5t-40 218.5zM264 975q57 49 117 90q51 35 111.5 65.5t115.5 34.5q12 2 24.5 2h22.5q92 0 152.5 -30.5t87.5 -87.5q27 -63 27 -121q0 -39 -10.5 -74t-32.5 -57q-27 -29 -59 -48.5t-72 -19.5q-20 0 -46 7 t-47 18q49 4 86 18t61.5 33.5t37 40t12.5 39.5q0 20 -6 44.5t-19.5 47t-34 40t-49.5 23.5q-31 6 -65 7q-53 0 -101.5 -21.5t-62.5 -83.5q-10 -41 -14 -115.5t-4 -150.5q0 -72 4 -130.5t14 -74.5q16 -29 48 -58.5t75 -29.5q20 0 39 8q35 14 56.5 49t35.5 72q16 43 25 92v-459 q-31 29 -85.5 83.5t-164.5 109.5q-47 25 -90 42t-75 29.5t-49.5 20.5t-17.5 12q2 8 35 16.5t53 35.5q20 25 24.5 70.5t4.5 92.5v70q0 27 -1 63.5t-5 71.5t-15.5 63.5t-29.5 39.5q-16 10 -33.5 13t-34.5 3q-16 0 -33 -4q-8 -2 -12 -2zM514 1163l6 109l55 -25q-2 4 -4 13 q-4 16 -4 34q0 43 41 43q20 0 31.5 -13t11.5 -30q0 -14 -8 -30q-4 -8 -6 -15l63 31v-117l-49 11l-4 -115l-67 -12q-2 37 -4.5 68.5t-6.5 55.5zM578 336l4 47l39 -8l-19 -496q-6 41 -10 79t-7 87t-4 118.5t-3 172.5zM625 125v80l41 2l32 4l68 -76q-25 -4 -50.5 -7t-51.5 -3 h-39zM686 932l172 -184l19 -132l-99 84zM698 971l82 203l99 53l-23 -86zM713 938l239 43l158 -27l-158 -39z" />
<glyph unicode="&#xaa;" horiz-adv-x="694" d="M46 618q12 9 27 30.5t18 48.5q1 8 6 34t12 64t15.5 83t17.5 91q20 108 46 241l-44 60l279 165q-4 -20 -7 -41q-3 -19 -2 -40t6 -40q7 -21 19 -69t28 -98q15 -59 35 -127l103 30l19 -88l-93 -39q13 -68 30 -129q13 -52 31 -103t38 -77h-252q11 12 21 27q8 12 14.5 26.5 t6.5 29.5q0 16 -4 44t-8 57q-5 34 -12 73q-51 -18 -89 -44q-33 -24 -58.5 -57t-17.5 -79q34 -44 52 -60.5t17 -16.5h-42t-86 1zM270 914l103 68l-59 169z" />
<glyph unicode="&#xad;" d="M0 553l51 61l-51 64h33l43 -43l-29 43h29l47 -43l-35 41h31l59 -45h502l-84 65l297 -82l-297 -82l86 66h-504l-57 -45h-33l35 41l-47 -41h-29l31 41l-43 -41h-35z" />
<glyph unicode="&#xae;" horiz-adv-x="1388" d="M55 727q0 131 48.5 244.5t132 197.5t197.5 132.5t245 48.5t244.5 -48.5t197.5 -132.5t132 -197.5t48 -244.5t-48 -244.5t-132 -197.5t-197.5 -132.5t-244.5 -48.5t-245 48.5t-197.5 132.5t-132 197.5t-48.5 244.5zM168 727q0 -106 41 -201.5t111.5 -166t165 -111.5 t200.5 -41t201.5 41t167 111.5t113.5 166t42 201.5t-42 201.5t-113.5 166t-166.5 111.5t-202 41q-106 0 -200.5 -41t-165 -111.5t-111.5 -166t-41 -201.5zM377 1010l311 192l287 -319l-187 -162l113 -70q-2 -12 -4 -26q-2 -12 -3 -29.5t-1 -38.5q0 -27 3 -56.5t10 -58 t21.5 -54.5t37.5 -42h-170q-20 14 -35 33q-12 16 -22.5 33.5t-10.5 40.5q0 20 -1 40.5t-1 36.5q-2 20 -2 39l-88 72v-78q0 -33 1 -65.5t1 -53.5q0 -23 8 -41t19 -30q12 -16 28 -27h-135q-51 0 -94 -1t-43 -3t9 9t21.5 31.5t22.5 46.5t10 54v453zM635 799l86 90l-86 92v-182z " />
<glyph unicode="&#xb6;" horiz-adv-x="886" d="M39 995q0 72 22.5 140.5t66.5 122t110.5 86t156.5 32.5h471q-47 -43 -78.5 -104.5t-31.5 -114.5q0 -31 1 -107.5t1 -183t2 -236.5t2 -269.5t1 -278.5t1 -266q0 -29 17.5 -56.5t39.5 -50.5q25 -25 58 -47h-217v1579h-140v-1579h-200q18 23 34 47q14 23 25.5 50.5 t11.5 56.5v800q-88 0 -154.5 33t-110.5 86t-66.5 121t-22.5 139z" />
<glyph unicode="&#xd7;" horiz-adv-x="849" d="M119 315v174l198 125l-198 127v170h172l127 -196l125 196h174v-170l-199 -127l199 -125l-2 -174h-172l-125 199l-127 -199h-172z" />
<glyph unicode="&#x152;" horiz-adv-x="1361" d="M70 176v1063l419 305l134 -110h690l2 -447l-84 236h-291v-471h262v-263l-53 54h-209v-316q0 -6 6 -6q82 0 136.5 4t94.5 15.5t70.5 33t65.5 56.5v-330h-641l-183 -174zM324 268l165 -127l158 127v858l-158 107l-165 -107v-858z" />
<glyph unicode="&#x153;" horiz-adv-x="1126" d="M31 217v733l338 287l202 -199q51 35 103.5 72t95.5 66q51 35 96 65l244 -332l-106 -75l-134 133l-86 -80v-238h226v-221l-47 41h-179v-272q0 -6 7 -7q70 0 117.5 4.5t82.5 15.5t61.5 32.5t55.5 56.5v-299h-637l-102 -115zM188 293l181 -111l116 111v561l-116 90l-181 -90 v-561z" />
<glyph unicode="&#x2000;" horiz-adv-x="811" />
<glyph unicode="&#x2001;" horiz-adv-x="1622" />
<glyph unicode="&#x2002;" horiz-adv-x="811" />
<glyph unicode="&#x2003;" horiz-adv-x="1622" />
<glyph unicode="&#x2004;" horiz-adv-x="540" />
<glyph unicode="&#x2005;" horiz-adv-x="405" />
<glyph unicode="&#x2006;" horiz-adv-x="270" />
<glyph unicode="&#x2007;" horiz-adv-x="270" />
<glyph unicode="&#x2008;" horiz-adv-x="202" />
<glyph unicode="&#x2009;" horiz-adv-x="324" />
<glyph unicode="&#x200a;" horiz-adv-x="90" />
<glyph unicode="&#x2010;" d="M0 553l51 61l-51 64h33l43 -43l-29 43h29l47 -43l-35 41h31l59 -45h502l-84 65l297 -82l-297 -82l86 66h-504l-57 -45h-33l35 41l-47 -41h-29l31 41l-43 -41h-35z" />
<glyph unicode="&#x2011;" d="M0 553l51 61l-51 64h33l43 -43l-29 43h29l47 -43l-35 41h31l59 -45h502l-84 65l297 -82l-297 -82l86 66h-504l-57 -45h-33l35 41l-47 -41h-29l31 41l-43 -41h-35z" />
<glyph unicode="&#x2012;" d="M0 553l51 61l-51 64h33l43 -43l-29 43h29l47 -43l-35 41h31l59 -45h502l-84 65l297 -82l-297 -82l86 66h-504l-57 -45h-33l35 41l-47 -41h-29l31 41l-43 -41h-35z" />
<glyph unicode="&#x2013;" horiz-adv-x="1030" d="M0 553l58 61l-58 64h38l49 -43l-33 43h33l54 -43l-40 41h35l68 -45h576l-97 65l341 -82l-341 -82l99 66h-578l-65 -45h-38l40 41l-54 -41h-33l35 41l-49 -41h-40z" />
<glyph unicode="&#x2014;" horiz-adv-x="2054" d="M0 553l117 61l-117 64h76l98 -43l-66 43h66l108 -43l-80 41h71l135 -45h1152l-193 65l681 -82l-681 -82l197 66h-1156l-130 -45h-76l80 41l-108 -41h-66l71 41l-99 -41h-80z" />
<glyph unicode="&#x2018;" horiz-adv-x="325" d="M12 1135q0 33 8.5 69.5t24.5 59.5q18 25 33.5 38t29 18t23.5 6t21 5q-43 -35 -57.5 -84t-14.5 -78q0 -25 6 -24q16 20 34.5 32.5t39.5 12.5q25 0 48 -20.5t41.5 -49t30 -63.5t11.5 -62v-94h-260z" />
<glyph unicode="&#x2019;" horiz-adv-x="346" d="M12 1237v94h260l19 -233q0 -33 -8.5 -70t-24.5 -59q-18 -25 -33.5 -38t-29 -18.5t-24.5 -7.5t-19 -4q43 35 57 84t14 78q0 25 -6 24q-16 -20 -34.5 -32.5t-39.5 -12.5q-25 0 -48 20.5t-41.5 49.5t-30 62.5t-11.5 62.5z" />
<glyph unicode="&#x201c;" horiz-adv-x="636" d="M12 1135q0 33 8.5 69.5t24.5 59.5q18 25 33.5 38t29 18t23.5 6t21 5q-43 -35 -57.5 -84t-14.5 -78q0 -25 6 -24q16 20 34.5 32.5t39.5 12.5q25 0 48 -20.5t41.5 -49t30 -63.5t11.5 -62v-94h-260zM328 1135q0 33 8 69.5t24 59.5q18 25 34 38t29 18t23.5 6t20.5 5 q-43 -35 -57.5 -84t-14.5 -78q0 -25 6 -24q16 20 35 32.5t39 12.5q25 0 48.5 -20.5t42 -49t29.5 -63.5t11 -62v-94h-260z" />
<glyph unicode="&#x201d;" horiz-adv-x="643" d="M12 1237v94h260l19 -233q0 -33 -8.5 -70t-24.5 -59q-18 -25 -33.5 -38t-29 -18.5t-24.5 -7.5t-19 -4q43 35 57 84t14 78q0 25 -6 24q-16 -20 -34.5 -32.5t-39.5 -12.5q-25 0 -48 20.5t-41.5 49.5t-30 62.5t-11.5 62.5zM328 1237v94h260l18 -233q0 -33 -8 -70t-25 -59 q-18 -25 -33.5 -38t-28.5 -18.5t-24.5 -7.5t-19.5 -4q43 35 57.5 84t14.5 78q0 25 -7 24q-16 -20 -34.5 -32.5t-38.5 -12.5q-25 0 -48.5 20.5t-42 49.5t-29.5 62.5t-11 62.5z" />
<glyph unicode="&#x2022;" horiz-adv-x="606" d="M14 623q0 82 43 148.5t115 98.5q4 2 4 9q0 14 -16.5 39.5t-16.5 52.5q0 23 26 39t114 18h12q84 0 111.5 -17.5t27.5 -39.5q0 -27 -16.5 -52.5t-16.5 -39.5q0 -6 7 -9q76 -35 113.5 -102.5t37.5 -144.5q0 -55 -21.5 -105.5t-58.5 -87.5t-87 -58.5t-105 -21.5t-105.5 21.5 t-87.5 58.5t-58.5 87.5t-21.5 105.5zM31 623q16 70 35.5 111.5t47 66t64.5 38t90 27.5q-63 0 -108 -20.5t-74 -55t-42 -78.5t-13 -89zM92 623q0 -41 15.5 -76t42 -61.5t61.5 -42t76 -15.5q39 0 74.5 15.5t62.5 42t42 61.5t15 76q0 39 -15 74.5t-42 62t-62.5 42t-74.5 15.5 q-41 0 -76 -15.5t-61.5 -42t-42 -62t-15.5 -74.5zM178 975q0 -20 15.5 -44t17.5 -24q0 18 20.5 30.5t44 22t44 14.5t20.5 9q0 8 -27.5 13t-50.5 5t-53.5 -3t-30.5 -23zM244 874q2 0 12 1.5t14 1.5l101 -3l26 66q-4 -6 -25.5 -17.5t-46 -21.5t-48 -18.5t-33.5 -8.5zM274 408 q113 0 171.5 62t58.5 142q0 10 -1 18.5t-3 18.5q-4 -61 -21.5 -103t-45 -69.5t-68 -44t-91.5 -24.5z" />
<glyph unicode="&#x202f;" horiz-adv-x="324" />
<glyph unicode="&#x205f;" horiz-adv-x="405" />
<glyph unicode="&#x20ac;" horiz-adv-x="1202" d="M-74 553l51 61l-51 64h33l43 -43l-29 43h29l47 -43l-35 41h31l59 -45h834l-84 65l297 -82l-297 -82l86 66h-836l-57 -45h-33l35 41l-47 -41h-29l31 41l-43 -41h-35zM-74 854l297 82l-84 -66h834l59 45h31l-35 -41l47 44h29l-29 -44l43 44h33l-51 -64l51 -61h-35l-43 41 l31 -41h-29l-47 41l35 -41h-33l-57 45h-836l86 -66zM258 252v919l416 267l366 -267l-204 -96l-162 92l-172 -92v-745l172 -113l162 113l204 -78l-366 -307z" />
<glyph unicode="&#x2122;" horiz-adv-x="1236" d="M76 1110v123q0 41 2 88h422v-211q-8 14 -24.5 25.5t-35 19.5t-37 12t-30.5 4h-15v-426q0 -35 11.5 -60.5t27.5 -43.5q18 -23 41 -39h-301q18 16 33 37q12 16 22.5 37.5t10.5 44.5v450h-10q-20 0 -58.5 -9t-58.5 -52zM518 602h232q-6 4 -13 12q-4 6 -8 17.5t-4 30.5 q0 18 -1 79.5t-1 126.5v172l115 -424l108 437q2 -104 4 -189q0 -37 1 -71.5t2 -64.5t1 -50.5v-26.5q0 -29 -12 -41q-6 -8 -12 -8h229q-20 12 -35 29q-14 14 -24 31.5t-10 35.5v559q0 12 6 22.5t16 20.5q10 8 25 19h-283q4 -2 8 -8q4 -4 7 -12.5t3 -20.5v-4q-2 -14 -7 -50 t-13 -75q-8 -45 -21 -96q-12 55 -20 102q-8 41 -14 75t-6 44q0 20 10 35q6 6 12 10h-274l16 -16q6 -8 12 -19.5t6 -28.5v-561q0 -20 -9 -36.5t-19 -28.5q-12 -14 -27 -27z" />
<glyph unicode="&#x25fc;" horiz-adv-x="1228" d="M0 0v1229h1229v-1229h-1229z" />
</font>
</defs>
</svg>
